<svg id="file" xmlns="http://www.w3.org/2000/svg" width="106" height="106" viewBox="0 0 106 106">
  <path id="Path_521" data-name="Path 521" d="M39.708,68.417A28.708,28.708,0,1,1,68.417,39.708,28.742,28.742,0,0,1,39.708,68.417Zm0-53A24.292,24.292,0,1,0,64,39.708,24.32,24.32,0,0,0,39.708,15.417Z" transform="translate(37.583 37.583)" fill="#08a141"/>
  <path id="Path_522" data-name="Path 522" d="M25.043,37.084a2.232,2.232,0,0,1-1.563-.645l-8.833-8.833a2.208,2.208,0,0,1,3.123-3.123l7.164,7.164,13.9-15.891a2.208,2.208,0,0,1,3.326,2.906L26.7,36.329a2.225,2.225,0,0,1-1.59.755Z" transform="translate(47.832 51.249)" fill="#08a141"/>
  <path id="Path_523" data-name="Path 523" d="M41.958,82.5H11.042A11.054,11.054,0,0,1,0,71.458V14.042A11.054,11.054,0,0,1,11.042,3h8.833a2.208,2.208,0,0,1,0,4.417H11.042a6.633,6.633,0,0,0-6.625,6.625V71.458a6.633,6.633,0,0,0,6.625,6.625H41.958a2.208,2.208,0,1,1,0,4.417Z" transform="translate(0 10.25)" fill="#08a141"/>
  <path id="Path_524" data-name="Path 524" d="M31.875,29.5a2.209,2.209,0,0,1-2.208-2.208V14.042a6.633,6.633,0,0,0-6.625-6.625H14.208a2.208,2.208,0,0,1,0-4.417h8.833A11.054,11.054,0,0,1,34.083,14.042v13.25A2.209,2.209,0,0,1,31.875,29.5Z" transform="translate(41 10.25)" fill="#08a141"/>
  <path id="Path_525" data-name="Path 525" d="M37.125,26.5h-26.5A6.633,6.633,0,0,1,4,19.875V11.042A2.209,2.209,0,0,1,6.208,8.833h6.846a11.044,11.044,0,0,1,21.642,0h6.846a2.209,2.209,0,0,1,2.208,2.208v8.833A6.633,6.633,0,0,1,37.125,26.5ZM8.417,13.25v6.625a2.212,2.212,0,0,0,2.208,2.208h26.5a2.212,2.212,0,0,0,2.208-2.208V13.25H32.708A2.209,2.209,0,0,1,30.5,11.042a6.625,6.625,0,0,0-13.25,0,2.209,2.209,0,0,1-2.208,2.208Z" transform="translate(13.667)" fill="#08a141"/>
  <path id="Path_526" data-name="Path 526" d="M49.375,12.417H5.208A2.208,2.208,0,0,1,5.208,8H49.375a2.208,2.208,0,0,1,0,4.417Z" transform="translate(10.25 27.333)" fill="#08a141"/>
  <path id="Path_527" data-name="Path 527" d="M36.125,15.417H5.208a2.208,2.208,0,0,1,0-4.417H36.125a2.208,2.208,0,0,1,0,4.417Z" transform="translate(10.25 37.583)" fill="#08a141"/>
  <path id="Path_528" data-name="Path 528" d="M27.292,18.417H5.208a2.208,2.208,0,0,1,0-4.417H27.292a2.208,2.208,0,0,1,0,4.417Z" transform="translate(10.25 47.833)" fill="#08a141"/>
</svg>
