<svg xmlns="http://www.w3.org/2000/svg" width="71.448" height="106" viewBox="0 0 71.448 106">
  <g id="business" transform="translate(-83.447)">
    <g id="Group_10" data-name="Group 10" transform="translate(83.447)">
      <path id="Path_520" data-name="Path 520" d="M153.342,85.885a1.553,1.553,0,0,0-1.553,1.553v14.6a.858.858,0,0,1-.857.857h-8.347V72.316a1.553,1.553,0,0,0-3.105,0v30.578H122.672l4.874-5.362a2.784,2.784,0,0,0,.672-2.233c0-.016,0-.031-.007-.047l-4.642-27.425,1.251-1.883a3.521,3.521,0,0,0,2.223.964,2.719,2.719,0,0,0,2.434-1.5h0l4.9-9.813,11.154,4.32a10.759,10.759,0,0,1,6.263,9.78v10.5a1.553,1.553,0,0,0,3.105,0v-10.5a13.858,13.858,0,0,0-8.2-12.655l-.03-.012-18.564-7.189V45.479a14.549,14.549,0,0,0,5.506-9.57,6.721,6.721,0,0,0,3.948-1.61,6.592,6.592,0,0,0,.688-9.3V19.244a19.244,19.244,0,1,0-38.488,0v5.9a6.235,6.235,0,0,0-1.6,4.156,6.58,6.58,0,0,0,2.29,5,6.718,6.718,0,0,0,3.946,1.61,14.4,14.4,0,0,0,5.821,9.8v4.124L91.672,57.022l-.029.012a13.857,13.857,0,0,0-8.2,12.655v32.348A3.967,3.967,0,0,0,87.41,106H102.2a1.553,1.553,0,0,0,0-3.105H98.863V72.316a1.553,1.553,0,0,0-3.105,0v30.578H87.41a.858.858,0,0,1-.857-.857V69.689a10.759,10.759,0,0,1,6.261-9.779l11.145-4.321,4.9,9.814a2.719,2.719,0,0,0,2.434,1.505,3.519,3.519,0,0,0,2.223-.964l1.251,1.883-4.642,27.425c0,.016,0,.031-.007.047a2.784,2.784,0,0,0,.672,2.234l4.874,5.362h-6.21a1.553,1.553,0,0,0,0,3.105h41.482a3.968,3.968,0,0,0,3.963-3.963v-14.6A1.553,1.553,0,0,0,153.342,85.885ZM131.463,54.463,126.9,63.612l-5.49-3.9,5.638-6.96Zm-9.178,9.682L121.1,65.927h-3.872l-1.184-1.782,3.12-2.216Zm-8.964-13.811V47.428a15.754,15.754,0,0,0,5.871,1.113A14.577,14.577,0,0,0,125,47.33v3.016l-5.834,7.2ZM136.744,29.3a3.479,3.479,0,0,1-1.209,2.64,3.617,3.617,0,0,1-1.793.825V25.838A3.513,3.513,0,0,1,136.744,29.3Zm-32.478,3.466a3.508,3.508,0,0,1-3-3.466,3.688,3.688,0,0,1,3-3.387Zm.083-10.017a7.676,7.676,0,0,0-1.484.334V19.244a16.138,16.138,0,1,1,32.277,0V22.98a6.9,6.9,0,0,0-1.4-.271c0-1.5.013-1.209-4.888-6.479a2.763,2.763,0,0,0-3.527-.43,29.937,29.937,0,0,1-18.1,4.872A2.761,2.761,0,0,0,104.35,22.752Zm3.022,11.239v-10.2a33.182,33.182,0,0,0,19.407-5.234c2.248,2.414,3.465,3.68,3.858,4.161V33.991a11.634,11.634,0,0,1-23.265,0Zm4.061,29.621-4.565-9.149,4.408-1.707,5.64,6.961Zm1.782,31.975,4.494-26.554h2.913l4.494,26.554-5.951,6.547Z" transform="translate(-83.447)" fill="#28a745"/>
    </g>
  </g>
</svg>
