<svg xmlns="http://www.w3.org/2000/svg" width="128.782" height="105.933" viewBox="0 0 128.782 105.933">
  <g id="computer" transform="translate(-8 -56)">
    <path id="Path_631" data-name="Path 631" d="M128.473,56H16.308A8.319,8.319,0,0,0,8,64.308v70.622a8.319,8.319,0,0,0,8.309,8.308H59.123l-2.77,8.309h-6.81a2.077,2.077,0,0,0-2.077,2.077v4.154H28.771a2.077,2.077,0,1,0,0,4.154h91.393a2.077,2.077,0,1,0,0-4.154H97.316v-4.154a2.077,2.077,0,0,0-2.077-2.077h-6.81l-2.77-8.309h42.815a8.319,8.319,0,0,0,8.308-8.308V64.308A8.319,8.319,0,0,0,128.473,56ZM93.162,155.7v2.077H51.62V155.7Zm-32.429-4.154,2.77-8.309H81.278l2.77,8.309Zm71.894-16.617a4.16,4.16,0,0,1-4.154,4.154H16.308a4.16,4.16,0,0,1-4.154-4.154v-4.154H132.627Zm-89.4-27-.779,18.694h-2.42l-.779-18.694Zm-3.692-4.154,1.386-8.309h.634l1.386,8.309Zm1.7-12.463c-2.251,0-4.154-2.853-4.154-6.231,0-2.132,2.176-5.229,4.149-7.413,1.779,1.973,4.159,5.128,4.159,7.413C45.388,88.458,43.485,91.311,41.234,91.311Zm22.6-4.154.244.491v1.586H55.774V87.648l.244-.491ZM58.1,83l1.833-3.664L61.761,83Zm5.987,10.386v32.974a2.143,2.143,0,0,0,.018.26H55.756a2.144,2.144,0,0,0,.018-.26V93.388ZM82.776,85.08h6.231v4.154H86.931a2.077,2.077,0,0,0,0,4.154h2.077v4.154H82.776a2.077,2.077,0,0,0,0,4.154h6.231v4.154H86.931a2.077,2.077,0,1,0,0,4.154h2.077v4.154H82.776a2.077,2.077,0,0,0,0,4.154h6.231v8.309H74.468V76.771h14.54v4.154H82.776a2.077,2.077,0,0,0,0,4.154ZM107.7,110.005v16.357a2.139,2.139,0,0,0,.018.26H99.375a2.145,2.145,0,0,0,.018-.26V110.005Zm-8.308-4.154v-1.586l4.154-8.308,4.154,8.308v1.586Zm33.234,20.771H111.838a2.145,2.145,0,0,0,.018-.26V103.774a2.1,2.1,0,0,0-.218-.93l-6.231-12.463a2.079,2.079,0,0,0-3.718,0l-6.231,12.463a2.1,2.1,0,0,0-.218.93v22.589a2.142,2.142,0,0,0,.018.26h-2.1V74.694a2.077,2.077,0,0,0-2.077-2.077H72.391a2.077,2.077,0,0,0-2.077,2.077v51.928h-2.1a2.146,2.146,0,0,0,.018-.26V87.157a2.1,2.1,0,0,0-.218-.929L61.787,73.765a2.079,2.079,0,0,0-3.718,0L51.838,86.227a2.1,2.1,0,0,0-.218.93v39.206a2.144,2.144,0,0,0,.018.26H46.6l.862-20.686c0-.047,0-.093,0-.143v-.062a2.079,2.079,0,0,0-.026-.218v-.005L45.515,93.978a11.122,11.122,0,0,0,4.027-8.9c0-5.338-6.187-11.25-6.893-11.907a2.082,2.082,0,0,0-2.83,0c-.706.657-6.893,6.569-6.893,11.907a11.122,11.122,0,0,0,4.027,8.9l-1.921,11.531v.005a2.081,2.081,0,0,0-.026.218v.062c0,.049,0,.1,0,.143l.862,20.686H12.154V64.308a4.16,4.16,0,0,1,4.154-4.154H128.473a4.16,4.16,0,0,1,4.154,4.154Z" fill="#28a745"/>
    <path id="Path_632" data-name="Path 632" d="M54.54,352H42.077a2.077,2.077,0,1,0,0,4.154H54.54a2.077,2.077,0,1,0,0-4.154Z" transform="translate(-23.692 -219.146)" fill="#28a745"/>
    <path id="Path_633" data-name="Path 633" d="M116.154,352h-2.077a2.077,2.077,0,1,0,0,4.154h2.077a2.077,2.077,0,1,0,0-4.154Z" transform="translate(-76.997 -219.146)" fill="#28a745"/>
    <path id="Path_634" data-name="Path 634" d="M202.077,208A2.077,2.077,0,0,0,200,210.077v22.848a2.077,2.077,0,0,0,4.154,0V210.077A2.077,2.077,0,0,0,202.077,208Z" transform="translate(-142.149 -112.535)" fill="#28a745"/>
    <path id="Path_635" data-name="Path 635" d="M370.077,272A2.077,2.077,0,0,0,368,274.077v6.231a2.077,2.077,0,0,0,4.154,0v-6.231A2.077,2.077,0,0,0,370.077,272Z" transform="translate(-266.529 -159.918)" fill="#28a745"/>
    <path id="Path_636" data-name="Path 636" d="M42.077,92.154H58.694a2.077,2.077,0,0,0,0-4.154H42.077a2.077,2.077,0,0,0,0,4.154Z" transform="translate(-23.692 -23.692)" fill="#28a745"/>
    <path id="Path_637" data-name="Path 637" d="M42.077,116.154h4.154a2.077,2.077,0,0,0,0-4.154H42.077a2.077,2.077,0,0,0,0,4.154Z" transform="translate(-23.692 -41.46)" fill="#28a745"/>
    <path id="Path_638" data-name="Path 638" d="M426.077,300.154h8.308a2.077,2.077,0,0,0,0-4.154h-8.308a2.077,2.077,0,1,0,0,4.154Z" transform="translate(-307.99 -177.686)" fill="#28a745"/>
    <path id="Path_639" data-name="Path 639" d="M450.077,276.154h2.077a2.077,2.077,0,1,0,0-4.154h-2.077a2.077,2.077,0,1,0,0,4.154Z" transform="translate(-325.758 -159.918)" fill="#28a745"/>
  </g>
</svg>
