<svg xmlns="http://www.w3.org/2000/svg" width="106.047" height="105.933" viewBox="0 0 106.047 105.933">
  <g id="data" transform="translate(0 -0.5)">
    <path id="Path_573" data-name="Path 573" d="M38.594,139.652a1.552,1.552,0,1,0,2.2-2.2l-3.769-3.769,3.769-3.768a1.552,1.552,0,1,0-2.2-2.2l-4.866,4.866a1.552,1.552,0,0,0,0,2.2Zm0,0" transform="translate(-26.382 -100.513)" fill="#28a745"/>
    <path id="Path_574" data-name="Path 574" d="M117.154,133.685l-3.769,3.769a1.552,1.552,0,1,0,2.2,2.2l4.867-4.867a1.551,1.551,0,0,0,0-2.194l-4.867-4.867a1.552,1.552,0,1,0-2.194,2.2Zm0,0" transform="translate(-89.54 -100.51)" fill="#28a745"/>
    <path id="Path_575" data-name="Path 575" d="M77.4,139.995a1.552,1.552,0,0,0,2.012-.877l3.823-9.732a1.552,1.552,0,1,0-2.888-1.135l-3.824,9.732A1.552,1.552,0,0,0,77.4,139.995Zm0,0" transform="translate(-60.59 -100.509)" fill="#28a745"/>
    <path id="Path_576" data-name="Path 576" d="M39.067,221.319H49.523a1.552,1.552,0,0,0,0-3.1H39.067a1.552,1.552,0,0,0,0,3.1Zm0,0" transform="translate(-29.746 -172.621)" fill="#28a745"/>
    <path id="Path_577" data-name="Path 577" d="M135.446,218.215H117.064a1.552,1.552,0,0,0,0,3.1h18.382a1.552,1.552,0,1,0,0-3.1Zm0,0" transform="translate(-91.587 -172.621)" fill="#28a745"/>
    <path id="Path_578" data-name="Path 578" d="M39.067,252.925h4.454a1.552,1.552,0,0,0,0-3.1H39.067a1.552,1.552,0,0,0,0,3.1Zm0,0" transform="translate(-29.746 -197.68)" fill="#28a745"/>
    <path id="Path_579" data-name="Path 579" d="M178.4,249.82a1.552,1.552,0,0,0,0,3.1h2.712a1.552,1.552,0,1,0,0-3.1Zm0,0" transform="translate(-140.219 -197.68)" fill="#28a745"/>
    <path id="Path_580" data-name="Path 580" d="M101.738,251.373a1.552,1.552,0,0,0-1.552-1.552H86.864a1.552,1.552,0,0,0,0,3.1h13.322A1.552,1.552,0,0,0,101.738,251.373Zm0,0" transform="translate(-67.642 -197.68)" fill="#28a745"/>
    <path id="Path_581" data-name="Path 581" d="M213.7,251.373a1.552,1.552,0,0,0,1.552,1.553h5.08a1.552,1.552,0,1,0,0-3.1h-5.08A1.552,1.552,0,0,0,213.7,251.373Zm0,0" transform="translate(-169.44 -197.68)" fill="#28a745"/>
    <path id="Path_582" data-name="Path 582" d="M166.952,152.382h5.359a1.552,1.552,0,1,0,0-3.1h-5.359a1.552,1.552,0,1,0,0,3.1Zm0,0" transform="translate(-131.141 -117.962)" fill="#28a745"/>
    <path id="Path_583" data-name="Path 583" d="M221.8,152.382h32.7a1.552,1.552,0,0,0,0-3.1H221.8a1.552,1.552,0,1,0,0,3.1Zm0,0" transform="translate(-174.628 -117.962)" fill="#28a745"/>
    <path id="Path_584" data-name="Path 584" d="M304.98,182.246H291.735a1.552,1.552,0,0,0,0,3.1H304.98a1.552,1.552,0,0,0,0-3.1Zm0,0" transform="translate(-230.08 -144.102)" fill="#28a745"/>
    <path id="Path_585" data-name="Path 585" d="M250.331,182.246h-4.553a1.552,1.552,0,0,0,0,3.1h4.553a1.552,1.552,0,0,0,0-3.1Zm0,0" transform="translate(-193.641 -144.102)" fill="#28a745"/>
    <path id="Path_586" data-name="Path 586" d="M166.952,185.35H178.1a1.552,1.552,0,0,0,0-3.1H166.952a1.552,1.552,0,1,0,0,3.1Zm0,0" transform="translate(-131.141 -144.102)" fill="#28a745"/>
    <path id="Path_587" data-name="Path 587" d="M111.254,281.16H100.8a1.552,1.552,0,1,0,0,3.1h10.455a1.552,1.552,0,1,0,0-3.1Zm0,0" transform="translate(-78.69 -222.528)" fill="#28a745"/>
    <path id="Path_588" data-name="Path 588" d="M47.1,281.16H39.067a1.552,1.552,0,1,0,0,3.1H47.1a1.552,1.552,0,0,0,0-3.1Zm0,0" transform="translate(-29.746 -222.528)" fill="#28a745"/>
    <path id="Path_589" data-name="Path 589" d="M190.5,281.16H176.841a1.552,1.552,0,1,0,0,3.1H190.5a1.552,1.552,0,0,0,0-3.1Zm0,0" transform="translate(-138.983 -222.528)" fill="#28a745"/>
    <path id="Path_590" data-name="Path 590" d="M303.368,242.668H295.9a1.552,1.552,0,0,0,0,3.1h7.469a1.552,1.552,0,0,0,0-3.1Zm0,0" transform="translate(-233.381 -192.009)" fill="#28a745"/>
    <path id="Path_591" data-name="Path 591" d="M394.529,245.772h10.543a1.552,1.552,0,1,0,0-3.1H394.529a1.552,1.552,0,0,0,0,3.1Zm0,0" transform="translate(-311.582 -192.009)" fill="#28a745"/>
    <path id="Path_592" data-name="Path 592" d="M359.824,242.668h-2.416a1.552,1.552,0,1,0,0,3.1h2.416a1.552,1.552,0,0,0,0-3.1Zm0,0" transform="translate(-282.149 -192.009)" fill="#28a745"/>
    <path id="Path_593" data-name="Path 593" d="M295.9,327.432h7.469a1.552,1.552,0,1,0,0-3.1H295.9a1.552,1.552,0,1,0,0,3.1Zm0,0" transform="translate(-233.381 -256.756)" fill="#28a745"/>
    <path id="Path_594" data-name="Path 594" d="M394.529,327.432h10.543a1.552,1.552,0,1,0,0-3.1H394.529a1.552,1.552,0,1,0,0,3.1Zm0,0" transform="translate(-311.582 -256.756)" fill="#28a745"/>
    <path id="Path_595" data-name="Path 595" d="M357.412,327.432h2.416a1.552,1.552,0,1,0,0-3.1h-2.416a1.552,1.552,0,1,0,0,3.1Zm0,0" transform="translate(-282.153 -256.756)" fill="#28a745"/>
    <path id="Path_596" data-name="Path 596" d="M303.368,405.988H295.9a1.552,1.552,0,1,0,0,3.1h7.469a1.552,1.552,0,1,0,0-3.1Zm0,0" transform="translate(-233.381 -321.501)" fill="#28a745"/>
    <path id="Path_597" data-name="Path 597" d="M405.071,405.988H394.528a1.552,1.552,0,0,0,0,3.1h10.543a1.552,1.552,0,1,0,0-3.1Zm0,0" transform="translate(-311.582 -321.501)" fill="#28a745"/>
    <path id="Path_598" data-name="Path 598" d="M359.824,405.988h-2.416a1.552,1.552,0,1,0,0,3.1h2.416a1.552,1.552,0,1,0,0-3.1Zm0,0" transform="translate(-282.149 -321.501)" fill="#28a745"/>
    <path id="Path_599" data-name="Path 599" d="M99.217.5H6.831A6.839,6.839,0,0,0,0,7.331v75.1a6.839,6.839,0,0,0,6.831,6.83h5.841a1.552,1.552,0,1,0,0-3.1H6.831A3.731,3.731,0,0,1,3.1,82.428V76.54H59.648v2.675H58.418a3.056,3.056,0,0,0-3.053,3.053v3.887H22.108a1.552,1.552,0,1,0,0,3.1H37.031v5.566H32.344a5.676,5.676,0,0,0-5.669,5.669v3.353a2.589,2.589,0,0,0,2.587,2.587H76.667a2.589,2.589,0,0,0,2.587-2.587v-3.353a5.676,5.676,0,0,0-5.669-5.669H68.9V92.862H97.591a3.055,3.055,0,0,0,3.052-3.053v-.731a6.84,6.84,0,0,0,5.287-6.651l.117-75.1A6.837,6.837,0,0,0,99.217.5ZM58.47,72.845v-7.44h39.07v7.44ZM62.752,62.3V59.035h30.5V62.3Zm30.5,13.648v3.266h-30.5V75.948ZM40.134,89.258H55.365v.553a3.055,3.055,0,0,0,3.053,3.052h7.377v1.962H40.134Zm33.452,8.671a2.568,2.568,0,0,1,2.565,2.565v2.836H29.779v-2.836a2.568,2.568,0,0,1,2.566-2.565Zm23.954-8.171H58.469V82.319h39.07Zm5.287-7.33a3.727,3.727,0,0,1-2.182,3.387V82.267a3.056,3.056,0,0,0-3.053-3.052H96.36V76.54h6.465Zm0-8.991h-2.233c.032-.176.051-8.083.051-8.083A3.056,3.056,0,0,0,97.591,62.3H96.36V59.035h1.231a3.057,3.057,0,0,0,3.053-3.053V48.44a3.057,3.057,0,0,0-3.053-3.053H88.825a1.552,1.552,0,0,0,0,3.1h8.715v7.44H58.469v-7.44h20.7a1.552,1.552,0,0,0,0-3.1H58.418a3.056,3.056,0,0,0-3.053,3.053v7.543a3.056,3.056,0,0,0,3.053,3.053h1.231V62.3H58.418a3.056,3.056,0,0,0-3.053,3.053s.019,7.907.051,8.083H3.1V21.612h99.722Zm0-54.929H3.218V7.33A3.73,3.73,0,0,1,6.945,3.6H99.1a3.731,3.731,0,0,1,3.727,3.727Zm0,0" transform="translate(0 0)" fill="#28a745"/>
    <path id="Path_600" data-name="Path 600" d="M37.828,29.262a4.555,4.555,0,1,0,4.555,4.554A4.559,4.559,0,0,0,37.828,29.262Zm0,6.005a1.451,1.451,0,1,1,1.451-1.451A1.452,1.452,0,0,1,37.828,35.267Zm0,0" transform="translate(-26.382 -22.805)" fill="#28a745"/>
    <path id="Path_601" data-name="Path 601" d="M93.813,29.262a4.555,4.555,0,1,0,4.554,4.554A4.56,4.56,0,0,0,93.813,29.262Zm0,6.005a1.451,1.451,0,1,1,1.451-1.451A1.452,1.452,0,0,1,93.813,35.267Zm0,0" transform="translate(-70.771 -22.805)" fill="#28a745"/>
    <path id="Path_602" data-name="Path 602" d="M149.8,29.262a4.555,4.555,0,1,0,4.555,4.554A4.559,4.559,0,0,0,149.8,29.262Zm0,6.005a1.451,1.451,0,1,1,1.451-1.451A1.452,1.452,0,0,1,149.8,35.267Zm0,0" transform="translate(-115.162 -22.805)" fill="#28a745"/>
  </g>
</svg>
