<svg xmlns="http://www.w3.org/2000/svg" width="109.771" height="109.775" viewBox="0 0 109.771 109.775">
  <g id="edit-tools" transform="translate(-0.5 0.001)">
    <path id="Path_626" data-name="Path 626" d="M339.484,155.148a2.144,2.144,0,1,0,2.144,2.143A2.143,2.143,0,0,0,339.484,155.148Zm0,0" transform="translate(-264.62 -121.884)" fill="#28a745"/>
    <path id="Path_627" data-name="Path 627" d="M157.789,336.84a2.144,2.144,0,1,0,2.144,2.144A2.143,2.143,0,0,0,157.789,336.84Zm0,0" transform="translate(-121.881 -264.621)" fill="#28a745"/>
    <path id="Path_628" data-name="Path 628" d="M107.607,13.189a2.142,2.142,0,0,0-2.007.578l-8.889,8.959H92.451l-4.691-4.86V13.545l8.761-8.892a2.144,2.144,0,0,0-.843-3.536A21.457,21.457,0,0,0,68.118,26.995L52.325,42.788,26.013,16.416V11.24A2.144,2.144,0,0,0,24.972,9.4L9.812.305A2.142,2.142,0,0,0,7.193.627L1.13,6.69A2.146,2.146,0,0,0,.807,9.31L9.9,24.47a2.144,2.144,0,0,0,1.838,1.041l5.174,0L43.228,51.884,27.5,67.617A21.454,21.454,0,0,0,1.618,95.178,2.144,2.144,0,0,0,5.171,96l8.888-8.958h4.285l4.882,4.882v4.285L14.268,105.1a2.144,2.144,0,0,0,.826,3.554,21.445,21.445,0,0,0,24.248-7.811,21.2,21.2,0,0,0,3.313-18.067L55.29,70.14l2.894,3.144-1.328,1.327a2.144,2.144,0,1,0,3.033,3.033l1.2-1.2,27.157,29.5c.02.022.041.043.062.064A12.865,12.865,0,0,0,106.5,87.81c-.022-.022-.044-.043-.067-.064L76.893,60.641l1.189-1.189a2.144,2.144,0,0,0-3.033-3.032L73.73,57.74l-3.15-2.891,12.7-12.7a21.452,21.452,0,0,0,25.876-27.559,2.142,2.142,0,0,0-1.546-1.4ZM19.321,21.854a2.122,2.122,0,0,0-1.517-.608l-4.849,0L5.346,8.539l3.7-3.7,12.683,7.611V17.3a2.143,2.143,0,0,0,.626,1.514l26.941,27L46.26,48.852ZM73.858,63.677l29.646,27.2A8.577,8.577,0,0,1,91.372,103l-27.246-29.6Zm-3.162-2.9-9.476,9.475-2.894-3.144,9.221-9.222ZM88.832,38.591a17.135,17.135,0,0,1-5.48-.894,2.148,2.148,0,0,0-2.2.516L38.714,80.651a2.143,2.143,0,0,0-.516,2.2,17.169,17.169,0,0,1-16.259,22.631,17.565,17.565,0,0,1-1.869-.1l6.81-6.757a2.143,2.143,0,0,0,.634-1.522V91.039a2.144,2.144,0,0,0-.628-1.516l-6.138-6.138a2.144,2.144,0,0,0-1.516-.628H13.166a2.147,2.147,0,0,0-1.523.634L4.888,90.2a17.344,17.344,0,0,1-.1-1.869A17.169,17.169,0,0,1,27.419,72.073a2.143,2.143,0,0,0,2.2-.516L72.057,29.119a2.144,2.144,0,0,0,.516-2.2A17.168,17.168,0,0,1,88.831,4.287a17.522,17.522,0,0,1,1.925.106l-6.668,6.768a2.143,2.143,0,0,0-.616,1.5v6.065a2.141,2.141,0,0,0,.6,1.489L90,26.359a2.142,2.142,0,0,0,1.543.655H97.6a2.143,2.143,0,0,0,1.522-.634l6.756-6.809a17.345,17.345,0,0,1,.1,1.869A17.171,17.171,0,0,1,88.832,38.591Zm0,0" transform="translate(0 0)" fill="#28a745"/>
    <path id="Path_629" data-name="Path 629" d="M211.382,184.053l-26.83,26.83a2.144,2.144,0,0,0,3.033,3.032l26.83-26.83a2.144,2.144,0,0,0-3.033-3.032Zm0,0" transform="translate(-144.098 -144.099)" fill="#28a745"/>
    <path id="Path_630" data-name="Path 630" d="M365.235,368a2.144,2.144,0,1,0,3.028-3.037L348.937,345.7a2.144,2.144,0,0,0-3.028,3.037Zm0,0" transform="translate(-270.857 -271.088)" fill="#28a745"/>
  </g>
</svg>
