<svg id="google" xmlns="http://www.w3.org/2000/svg" width="31" height="31" viewBox="0 0 31 31">
  <path id="Path_2318" data-name="Path 2318" d="M7.266,109.647a8.184,8.184,0,0,1,1.158-4.207v-5.226H3.2a15.508,15.508,0,0,0,0,18.865H8.424v-5.226A8.184,8.184,0,0,1,7.266,109.647Z" transform="translate(0 -94.147)" fill="#fbbd00"/>
  <path id="Path_2319" data-name="Path 2319" d="M199.633,374.114,196,377.747l3.633,3.633a15.383,15.383,0,0,0,9.432-3.2v-5.22h-5.22A8.233,8.233,0,0,1,199.633,374.114Z" transform="translate(-184.133 -350.379)" fill="#0f9d58"/>
  <path id="Path_2320" data-name="Path 2320" d="M58.049,325.477,52.823,330.7a15.743,15.743,0,0,0,1.342,1.528,15.4,15.4,0,0,0,10.96,4.54V329.5A8.238,8.238,0,0,1,58.049,325.477Z" transform="translate(-49.625 -305.77)" fill="#31aa52"/>
  <path id="Path_2321" data-name="Path 2321" d="M271.5,200.877a15.634,15.634,0,0,0-.254-2.808l-.136-.745H256v7.266h7.354a8.2,8.2,0,0,1-3.141,3.369l5.22,5.22a15.748,15.748,0,0,0,1.528-1.342A15.4,15.4,0,0,0,271.5,200.877Z" transform="translate(-240.5 -185.377)" fill="#3c79e6"/>
  <path id="Path_2322" data-name="Path 2322" d="M205.455,9.677l.642.642,5.138-5.138-.642-.642A15.4,15.4,0,0,0,199.633,0L196,3.633l3.633,3.633A8.181,8.181,0,0,1,205.455,9.677Z" transform="translate(-184.133 0)" fill="#cf2d48"/>
  <path id="Path_2323" data-name="Path 2323" d="M65.124,7.266V0a15.4,15.4,0,0,0-10.96,4.54,15.733,15.733,0,0,0-1.342,1.528l5.226,5.226a8.238,8.238,0,0,1,7.076-4.028Z" transform="translate(-49.624 0)" fill="#eb4132"/>
</svg>
