<svg xmlns="http://www.w3.org/2000/svg" width="696.509" height="778.999" viewBox="0 0 696.509 778.999">
  <g id="undraw_remotely_2j6y" transform="translate(0 0)">
    <path id="Path_439" data-name="Path 439" d="M501.189,80.561l3.47-5.362a80.393,80.393,0,0,0-3.56-8.333l-2.243,1.812,1.776-2.745c-1.693-3.333-3.025-5.432-3.025-5.432s-6.958,10.965-9.283,22.575l4.452,6.881-4.929-3.981a32.52,32.52,0,0,0-.27,4.078c0,13.75,4.491,24.9,10.03,24.9s10.03-11.146,10.03-24.9a42.82,42.82,0,0,0-2.295-12.847Z" transform="translate(-158.827 -60.501)" fill="#e6e6e6"/>
    <path id="Path_440" data-name="Path 440" d="M525.747,92.481l6.245-1.338a80.4,80.4,0,0,0,3.375-8.409l-2.868-.305,3.2-.685c1.159-3.554,1.7-5.98,1.7-5.98s-12.674,2.833-22.527,9.4l-1.717,8.014-.67-6.3a32.524,32.524,0,0,0-3.075,2.693c-9.722,9.722-14.429,20.779-10.512,24.7s14.974-.789,24.7-10.512a42.818,42.818,0,0,0,7.462-10.707Z" transform="translate(-158.827 -60.501)" fill="#e6e6e6"/>
    <path id="Path_441" data-name="Path 441" d="M528.028,145.685c-14.481.926-30.26-.054-47.046,0V107.253c14.791,2.3,30.565,2.066,47.046,0Z" transform="translate(-158.827 -60.501)" fill="#e6e6e6"/>
    <path id="Path_442" data-name="Path 442" d="M631.628,175.652l2.263-3.5a52.421,52.421,0,0,0-2.321-5.434l-1.463,1.182,1.158-1.79c-1.1-2.173-1.973-3.543-1.973-3.543a50.242,50.242,0,0,0-6.054,14.722l2.9,4.487-3.214-2.6a21.222,21.222,0,0,0-.176,2.66c0,8.967,2.928,16.236,6.541,16.236s6.541-7.269,6.541-16.236a27.925,27.925,0,0,0-1.5-8.378Z" transform="translate(-158.827 -60.501)" fill="#e6e6e6"/>
    <path id="Path_443" data-name="Path 443" d="M647.644,183.426l4.073-.873a52.416,52.416,0,0,0,2.2-5.484l-1.87-.2,2.085-.447c.756-2.317,1.11-3.9,1.11-3.9a50.24,50.24,0,0,0-14.691,6.129l-1.12,5.226-.437-4.109a21.211,21.211,0,0,0-2.005,1.756c-6.34,6.34-9.41,13.551-6.855,16.105s9.765-.515,16.105-6.855a27.925,27.925,0,0,0,4.866-6.982Z" transform="translate(-158.827 -60.501)" fill="#e6e6e6"/>
    <path id="Path_444" data-name="Path 444" d="M649.131,218.122c-9.444.6-19.734-.035-30.681,0V193.059a110.584,110.584,0,0,0,30.681,0Z" transform="translate(-158.827 -60.501)" fill="#e6e6e6"/>
    <path id="Path_445" data-name="Path 445" d="M643.3,292.4c-8.339.533-17.425-.031-27.091,0V270.268a97.645,97.645,0,0,0,27.091,0Z" transform="translate(-158.827 -60.501)" fill="#e6e6e6"/>
    <rect id="Rectangle_11" data-name="Rectangle 11" width="364.547" height="10.183" transform="translate(167.508 82.481)" fill="#e6e6e6"/>
    <rect id="Rectangle_12" data-name="Rectangle 12" width="364.547" height="10.183" transform="translate(167.508 154.78)" fill="#e6e6e6"/>
    <rect id="Rectangle_13" data-name="Rectangle 13" width="364.547" height="10.183" transform="translate(167.508 227.078)" fill="#e6e6e6"/>
    <circle id="Ellipse_5" data-name="Ellipse 5" cx="20.366" cy="20.366" r="20.366" transform="translate(450.592 177.182)" fill="#e6e6e6"/>
    <circle id="Ellipse_6" data-name="Ellipse 6" cx="16.293" cy="16.293" r="16.293" transform="translate(454.665 181.255)" fill="#fff"/>
    <circle id="Ellipse_7" data-name="Ellipse 7" cx="4.073" cy="4.073" r="4.073" transform="translate(466.885 193.475)" fill="#e6e6e6"/>
    <rect id="Rectangle_14" data-name="Rectangle 14" width="2.037" height="16.293" transform="translate(485.214 196.529) rotate(90)" fill="#e6e6e6"/>
    <rect id="Rectangle_15" data-name="Rectangle 15" width="2.037" height="16.293" transform="translate(471.976 199.584) rotate(180)" fill="#e6e6e6"/>
    <rect id="Rectangle_16" data-name="Rectangle 16" width="13.475" height="53.339" transform="translate(339.725 105.104)" fill="#e6e6e6"/>
    <rect id="Rectangle_17" data-name="Rectangle 17" width="13.475" height="6.176" transform="translate(339.725 113.526)" fill="#ccc"/>
    <rect id="Rectangle_18" data-name="Rectangle 18" width="13.475" height="6.176" transform="translate(339.725 140.476)" fill="#ccc"/>
    <rect id="Rectangle_19" data-name="Rectangle 19" width="13.475" height="53.339" transform="translate(318.951 105.104)" fill="#e6e6e6"/>
    <rect id="Rectangle_20" data-name="Rectangle 20" width="13.475" height="6.176" transform="translate(318.951 113.526)" fill="#ccc"/>
    <rect id="Rectangle_21" data-name="Rectangle 21" width="13.475" height="6.176" transform="translate(318.951 140.476)" fill="#ccc"/>
    <rect id="Rectangle_22" data-name="Rectangle 22" width="13.475" height="53.339" transform="matrix(0.896, -0.444, 0.444, 0.896, 352.735, 110.863)" fill="#e6e6e6"/>
    <rect id="Rectangle_23" data-name="Rectangle 23" width="13.475" height="6.176" transform="matrix(0.896, -0.444, 0.444, 0.896, 356.472, 118.411)" fill="#ccc"/>
    <rect id="Rectangle_24" data-name="Rectangle 24" width="13.475" height="6.176" transform="matrix(0.896, -0.444, 0.444, 0.896, 368.429, 142.562)" fill="#ccc"/>
    <rect id="Rectangle_25" data-name="Rectangle 25" width="13.475" height="53.339" transform="translate(219.567 177.403)" fill="#e6e6e6"/>
    <rect id="Rectangle_26" data-name="Rectangle 26" width="13.475" height="6.176" transform="translate(219.567 185.825)" fill="#ccc"/>
    <rect id="Rectangle_27" data-name="Rectangle 27" width="13.475" height="6.176" transform="translate(219.567 212.775)" fill="#ccc"/>
    <rect id="Rectangle_28" data-name="Rectangle 28" width="13.475" height="53.339" transform="translate(198.793 177.403)" fill="#e6e6e6"/>
    <rect id="Rectangle_29" data-name="Rectangle 29" width="13.475" height="6.176" transform="translate(198.793 185.825)" fill="#ccc"/>
    <rect id="Rectangle_30" data-name="Rectangle 30" width="13.475" height="6.176" transform="translate(198.793 212.775)" fill="#ccc"/>
    <rect id="Rectangle_31" data-name="Rectangle 31" width="13.475" height="53.339" transform="matrix(0.896, -0.444, 0.444, 0.896, 232.576, 183.161)" fill="#e6e6e6"/>
    <rect id="Rectangle_32" data-name="Rectangle 32" width="13.475" height="6.176" transform="matrix(0.896, -0.444, 0.444, 0.896, 236.313, 190.709)" fill="#ccc"/>
    <rect id="Rectangle_33" data-name="Rectangle 33" width="13.475" height="6.176" transform="matrix(0.896, -0.444, 0.444, 0.896, 248.271, 214.86)" fill="#ccc"/>
    <rect id="Rectangle_34" data-name="Rectangle 34" width="13.475" height="53.339" transform="translate(345.835 177.403)" fill="#e6e6e6"/>
    <rect id="Rectangle_35" data-name="Rectangle 35" width="13.475" height="6.176" transform="translate(345.835 185.825)" fill="#ccc"/>
    <rect id="Rectangle_36" data-name="Rectangle 36" width="13.475" height="6.176" transform="translate(345.835 212.775)" fill="#ccc"/>
    <rect id="Rectangle_37" data-name="Rectangle 37" width="13.475" height="53.339" transform="translate(325.061 177.403)" fill="#e6e6e6"/>
    <rect id="Rectangle_38" data-name="Rectangle 38" width="13.475" height="6.176" transform="translate(325.061 185.825)" fill="#ccc"/>
    <rect id="Rectangle_39" data-name="Rectangle 39" width="13.475" height="6.176" transform="translate(325.061 212.775)" fill="#ccc"/>
    <rect id="Rectangle_40" data-name="Rectangle 40" width="13.475" height="53.339" transform="matrix(0.896, -0.444, 0.444, 0.896, 358.844, 183.161)" fill="#e6e6e6"/>
    <rect id="Rectangle_41" data-name="Rectangle 41" width="13.475" height="6.176" transform="matrix(0.896, -0.444, 0.444, 0.896, 362.581, 190.709)" fill="#ccc"/>
    <rect id="Rectangle_42" data-name="Rectangle 42" width="13.475" height="6.176" transform="matrix(0.896, -0.444, 0.444, 0.896, 374.538, 214.861)" fill="#ccc"/>
    <rect id="Rectangle_43" data-name="Rectangle 43" width="53.556" height="53.556" transform="translate(449.987 32.646)" fill="#e6e6e6"/>
    <rect id="Rectangle_44" data-name="Rectangle 44" width="32.134" height="32.134" transform="translate(460.699 43.357)" fill="#ccc"/>
    <path id="Path_446" data-name="Path 446" d="M470,54.143l6.814,11.8,6.813,11.8H456.373l6.814-11.8Z" fill="#e6e6e6"/>
    <path id="Path_447" data-name="Path 447" d="M481.839,56.4l6.814,11.8L495.466,80H468.212l6.814-11.8Z" fill="#e6e6e6"/>
    <circle id="Ellipse_8" data-name="Ellipse 8" cx="3.946" cy="3.946" r="3.946" transform="translate(482.685 45.048)" fill="#e6e6e6"/>
    <rect id="Rectangle_45" data-name="Rectangle 45" width="53.556" height="53.556" transform="translate(179.123 32.646)" fill="#e6e6e6"/>
    <rect id="Rectangle_46" data-name="Rectangle 46" width="32.134" height="32.134" transform="translate(189.834 43.357)" fill="#ccc"/>
    <path id="Path_448" data-name="Path 448" d="M199.136,54.143l6.813,11.8,6.814,11.8H185.509l6.813-11.8Z" fill="#e6e6e6"/>
    <path id="Path_449" data-name="Path 449" d="M210.975,56.4l6.813,11.8L224.6,80H197.348l6.813-11.8Z" fill="#e6e6e6"/>
    <circle id="Ellipse_9" data-name="Ellipse 9" cx="3.946" cy="3.946" r="3.946" transform="translate(211.82 45.048)" fill="#e6e6e6"/>
    <path id="Path_450" data-name="Path 450" d="M230.324,458.345l3.47-5.362a80.388,80.388,0,0,0-3.56-8.332l-2.244,1.812,1.776-2.745c-1.693-3.332-3.025-5.432-3.025-5.432s-6.958,10.965-9.283,22.575l4.452,6.881-4.929-3.981a32.522,32.522,0,0,0-.27,4.078c0,13.75,4.491,24.9,10.03,24.9s10.03-11.146,10.03-24.9a42.819,42.819,0,0,0-2.295-12.847Z" transform="translate(-158.827 -60.501)" fill="#08a141"/>
    <path id="Path_451" data-name="Path 451" d="M254.882,470.266l6.245-1.338a80.389,80.389,0,0,0,3.375-8.409l-2.868-.305,3.2-.685c1.159-3.554,1.7-5.98,1.7-5.98s-12.674,2.833-22.527,9.4l-1.717,8.014-.67-6.3a32.523,32.523,0,0,0-3.075,2.693c-9.722,9.722-14.429,20.779-10.512,24.7s14.974-.789,24.7-10.512a42.819,42.819,0,0,0,7.462-10.707Z" transform="translate(-158.827 -60.501)" fill="#08a141"/>
    <path id="Path_452" data-name="Path 452" d="M257.163,523.469c-14.481.926-30.26-.054-47.046,0V485.038c14.791,2.3,30.565,2.066,47.046,0Z" transform="translate(-158.827 -60.501)" fill="#3f3d56"/>
    <rect id="Rectangle_47" data-name="Rectangle 47" width="195.511" height="253.554" transform="translate(500.998 475.031)" fill="rgba(21,42,73,0.11)"/>
    <rect id="Rectangle_48" data-name="Rectangle 48" width="10.183" height="240.316" transform="translate(92.664 488.269)" fill="rgba(21,42,73,0.11)"/>
    <rect id="Rectangle_49" data-name="Rectangle 49" width="696.509" height="20.366" transform="translate(0 457.72)" fill="rgba(21,42,73,0.11)"/>
    <rect id="Rectangle_50" data-name="Rectangle 50" width="20.366" height="20.366" transform="translate(87.573 478.086)" fill="rgba(21,42,73,0.14)"/>
    <path id="Path_453" data-name="Path 453" d="M614.155,489.8l-1.146,4.583H584.5l-1.718-4.583H510.162v46.842H687.344V489.8Z" fill="#152a49"/>
    <path id="Path_454" data-name="Path 454" d="M614.155,548.857l-1.146,4.582H584.5l-1.718-4.582H510.162V595.7H687.344V548.857Z" fill="#152a49"/>
    <path id="Path_455" data-name="Path 455" d="M614.155,607.918l-1.146,4.582H584.5l-1.718-4.582H510.162v46.841H687.344V607.918Z" fill="#152a49"/>
    <path id="Path_456" data-name="Path 456" d="M614.155,666.979l-1.146,4.582H584.5l-1.718-4.582H510.162V713.82H687.344V666.979Z" fill="#152a49"/>
    <path id="Path_457" data-name="Path 457" d="M377.785,454.665H317.706l2.036-26.475h56.006Z" fill="rgba(21,42,73,0.11)"/>
    <rect id="Rectangle_51" data-name="Rectangle 51" width="67.207" height="6.11" transform="translate(314.651 451.611)" fill="#dbe0e8"/>
    <path id="Path_458" data-name="Path 458" d="M621.639,318.128H392.015a6.11,6.11,0,0,0-6.11,6.11V464.252H627.748V324.237a6.11,6.11,0,0,0-6.108-6.109Z" transform="translate(-158.827 -60.501)" fill="#3f3d56"/>
    <path id="Path_459" data-name="Path 459" d="M385.9,464.252v22.911a6.11,6.11,0,0,0,6.11,6.11H621.639a6.11,6.11,0,0,0,6.11-6.11V464.252Z" transform="translate(-158.827 -60.501)" fill="rgba(21,42,73,0.11)"/>
    <rect id="Rectangle_52" data-name="Rectangle 52" width="217.914" height="122.195" transform="translate(239.298 270.355)" fill="#fff"/>
    <circle id="Ellipse_10" data-name="Ellipse 10" cx="6.11" cy="6.11" r="6.11" transform="translate(342.144 411.897)" fill="#3f3d56"/>
    <rect id="Rectangle_53" data-name="Rectangle 53" width="58.756" height="3.373" transform="translate(309.964 304.848)" fill="#3f3d56"/>
    <rect id="Rectangle_54" data-name="Rectangle 54" width="90.732" height="3.373" transform="translate(309.964 317.151)" fill="#09f"/>
    <rect id="Rectangle_55" data-name="Rectangle 55" width="73.945" height="3.373" transform="translate(309.964 328.742)" fill="#09f"/>
    <rect id="Rectangle_56" data-name="Rectangle 56" width="43.168" height="3.373" transform="translate(309.964 340.29)" fill="#3f3d56"/>
    <rect id="Rectangle_57" data-name="Rectangle 57" width="65.151" height="3.373" transform="translate(309.964 351.837)" fill="#3f3d56"/>
    <rect id="Rectangle_58" data-name="Rectangle 58" width="7.195" height="7.195" transform="translate(283.184 303.649)" fill="#3f3d56"/>
    <rect id="Rectangle_59" data-name="Rectangle 59" width="7.195" height="7.195" transform="translate(283.184 315.24)" fill="#09f"/>
    <rect id="Rectangle_60" data-name="Rectangle 60" width="7.195" height="7.195" transform="translate(283.184 326.831)" fill="#09f"/>
    <rect id="Rectangle_61" data-name="Rectangle 61" width="7.195" height="7.195" transform="translate(283.184 338.423)" fill="#3f3d56"/>
    <rect id="Rectangle_62" data-name="Rectangle 62" width="7.195" height="7.195" transform="translate(283.184 350.014)" fill="#3f3d56"/>
    <path id="Path_467" data-name="Path 467" d="M605.942,358.963H575.109a107.84,107.84,0,0,1,0-36.763h30.833a66.149,66.149,0,0,0,0,36.763Z" transform="translate(-158.827 -60.501)" fill="#09f"/>
    <path id="Path_468" data-name="Path 468" d="M381.591,432.645l-12.685-3.092a32.657,32.657,0,0,1-32.051-39.124h0a42.685,42.685,0,0,1,42.631-42.738h0a42.685,42.685,0,0,1,42.738,42.631h0C429.417,415.35,406.891,438.812,381.591,432.645Z" transform="translate(-158.827 -60.501)" fill="#2f2e41"/>
    <circle id="Ellipse_11" data-name="Ellipse 11" cx="31.364" cy="31.364" r="31.364" transform="translate(205.256 313.879)" fill="#ffb8b8"/>
    <path id="Path_469" data-name="Path 469" d="M374.992,422.108s-9.545,32.727-15,35.455,43.636,6.818,43.636,6.818-1.364-31.364,1.364-34.091S374.992,422.108,374.992,422.108Z" transform="translate(-158.827 -60.501)" fill="#ffb8b8"/>
    <path id="Path_470" data-name="Path 470" d="M424.083,623.926s61.364-5.455,69.546,15-5.455,141.819-5.455,141.819H462.265V681.2s-110.473-31.4-110.473-42.311S424.083,623.926,424.083,623.926Z" transform="translate(-158.827 -60.501)" fill="#2f2e41"/>
    <path id="Path_471" data-name="Path 471" d="M484.083,775.29l13.636,5.455s16.364-1.364,9.545,10.909a27,27,0,0,1-19.091,13.636s-25.909,9.545-27.273,0,6.818-28.636,6.818-28.636Z" transform="translate(-158.827 -60.501)" fill="#2f2e41"/>
    <path id="Path_472" data-name="Path 472" d="M389.992,623.926s61.364-5.455,69.546,15-5.455,141.819-5.455,141.819H428.174V681.2s-78.418-18.164-78.418-29.073c0-5.125-5.343-31.171,4.073-36.658C364.457,609.274,389.992,623.926,389.992,623.926Z" transform="translate(-158.827 -60.501)" fill="#2f2e41"/>
    <path id="Path_473" data-name="Path 473" d="M449.992,775.29l13.636,5.455s16.364-1.364,9.545,10.909a27,27,0,0,1-19.091,13.636s-25.909,9.545-27.273,0,6.818-28.636,6.818-28.636Z" transform="translate(-158.827 -60.501)" fill="#2f2e41"/>
    <path id="Path_474" data-name="Path 474" d="M361.356,453.471l40.98,4.454a30.182,30.182,0,0,1,26.269,23.767l15.933,75.416s5.455,75-5.455,79.091-25.909-16.364-46.364-13.636-47.046,8.864-47.046,8.864S341.451,497.179,340.9,486.2C339.8,464.248,361.356,453.471,361.356,453.471Z" transform="translate(-158.827 -60.501)" fill="#575a89"/>
    <path id="Path_475" data-name="Path 475" d="M458.427,627.823l16.824,9.908s30.183-4.331,29.241,6.278-33.889,8.559-33.889,8.559l-20.275-12.493Z" transform="translate(-158.827 -60.501)" fill="#ffb8b8"/>
    <circle id="Ellipse_12" data-name="Ellipse 12" cx="20.26" cy="20.26" r="20.26" transform="translate(155.483 279.215)" fill="#2f2e41"/>
    <path id="Path_476" data-name="Path 476" d="M353.263,349.085a20.25,20.25,0,0,0-24.247-19.836,20.25,20.25,0,1,1,12.63,38.164,20.243,20.243,0,0,0,11.616-18.328Z" transform="translate(-158.827 -60.501)" fill="#2f2e41"/>
    <path id="Path_477" data-name="Path 477" d="M370.643,360.575l27.313-5.029,21,13.165a31.863,31.863,0,0,1,14.678,31.1L412.6,394.474l-4.711-11.812-5.61,9.2-29.334,37.75-16.47-10.488L341.793,396.11Z" transform="translate(-158.827 -60.501)" fill="#2f2e41"/>
    <path id="Path_478" data-name="Path 478" d="M393.136,465.071l13.636-6.818s28.636,4.091,34.091,23.182,30,151.364,30,151.364l-23.182,10.909-32.727-80.455Z" transform="translate(-158.827 -60.501)" fill="#575a89"/>
    <path id="Path_479" data-name="Path 479" d="M245.917,458.23,259.565,511.2l24.2,59.5-.839,2.06L254.063,512.2Z" opacity="0.2"/>
    <path id="Path_480" data-name="Path 480" d="M144.084,750.379l-4.813-1.658L185.9,610.231l6.74,2.322Z" fill="#3f3d56"/>
    <path id="Path_481" data-name="Path 481" d="M322.291,750.379l4.814-1.658-46.626-138.49-6.739,2.322Z" fill="#3f3d56"/>
    <path id="Path_482" data-name="Path 482" d="M223.77,778.981l5.091.018,1.582-161.892-7.128-.025Z" fill="#3f3d56"/>
    <path id="Path_483" data-name="Path 483" d="M291.127,589.357,305.093,645.8a44.826,44.826,0,0,0,32.642,32.721h0a238.261,238.261,0,0,0,118.547-.764l20.851-5.5c12.116-3.2,21.227-13.6,22.089-26.1a25.685,25.685,0,0,0-2.323-12.872q-.122-.26-.246-.515a34.064,34.064,0,0,0-29.6-19.138l-22.089-.713-80.445-35.64s-27.667-14.053-50.412-15.626C299.089,560.617,287.51,574.741,291.127,589.357Z" transform="translate(-158.827 -60.501)" fill="#139ff0"/>
    <rect id="Rectangle_63" data-name="Rectangle 63" width="79.426" height="107.939" transform="translate(543.257 351.309)" fill="rgba(21,42,73,0.11)"/>
    <rect id="Rectangle_64" data-name="Rectangle 64" width="61.097" height="83.03" transform="translate(552.421 363.764)" fill="#fff"/>
    <rect id="Rectangle_65" data-name="Rectangle 65" width="29.602" height="3.373" transform="translate(576.467 385.492)" fill="#3f3d56"/>
    <rect id="Rectangle_66" data-name="Rectangle 66" width="7.195" height="7.195" transform="translate(559.87 383.625)" fill="#3f3d56"/>
    <rect id="Rectangle_67" data-name="Rectangle 67" width="29.602" height="3.373" transform="translate(576.467 399.748)" fill="#3f3d56"/>
    <rect id="Rectangle_68" data-name="Rectangle 68" width="7.195" height="7.195" transform="translate(559.87 397.881)" fill="#3f3d56"/>
    <rect id="Rectangle_69" data-name="Rectangle 69" width="29.602" height="3.373" transform="translate(576.467 414.004)" fill="#3f3d56"/>
    <rect id="Rectangle_70" data-name="Rectangle 70" width="7.195" height="7.195" transform="translate(559.87 412.137)" fill="#3f3d56"/>
    <rect id="Rectangle_71" data-name="Rectangle 71" width="6.11" height="6.11" rx="3.055" transform="translate(579.915 354.364)" fill="#3f3d56"/>
  </g>
</svg>
