<svg xmlns="http://www.w3.org/2000/svg" width="76.666" height="46" viewBox="0 0 76.666 46">
  <g id="mastercard" transform="translate(0 -100.8)">
    <path id="Path_2288" data-name="Path 2288" d="M247.6,123.8a23,23,0,1,1-46,0h0a23,23,0,1,1,46,0Z" transform="translate(-170.933 0)" fill="#ffb600"/>
    <path id="Path_2289" data-name="Path 2289" d="M224.6,100.8a23.06,23.06,0,0,1,23,23h0a23,23,0,0,1-46,0" transform="translate(-170.933 0)" fill="#f7981d"/>
    <path id="Path_2290" data-name="Path 2290" d="M352.8,100.8a23.06,23.06,0,0,1,23,23h0a22.981,22.981,0,0,1-23,23" transform="translate(-299.134 0)" fill="#ff8500"/>
    <path id="Path_2291" data-name="Path 2291" d="M22.757,100.8a23,23,0,0,0,.243,46,23.268,23.268,0,0,0,15.455-5.963h0a21.867,21.867,0,0,0,2.312-2.434H36.021a28.076,28.076,0,0,1-1.7-2.312h8.153a15.589,15.589,0,0,0,1.339-2.434H32.979a14.5,14.5,0,0,1-.974-2.434H44.661a24.164,24.164,0,0,0,1.217-7.3,31.411,31.411,0,0,0-.487-4.868H31.275a17.791,17.791,0,0,1,.608-2.434H44.539a14.5,14.5,0,0,0-.974-2.434H32.857a24.133,24.133,0,0,1,1.339-2.434h8.153a11.573,11.573,0,0,0-1.825-2.434h-4.5a20.744,20.744,0,0,1,2.312-2.312,22.456,22.456,0,0,0-15.455-5.963C22.878,100.8,22.878,100.8,22.757,100.8Z" transform="translate(0 0)" fill="#ff5050"/>
    <path id="Path_2292" data-name="Path 2292" d="M0,125.156a22.981,22.981,0,0,0,23,23,23.268,23.268,0,0,0,15.455-5.963h0a21.871,21.871,0,0,0,2.312-2.434H36.021a28.076,28.076,0,0,1-1.7-2.312h8.153a15.591,15.591,0,0,0,1.339-2.434H32.979a14.5,14.5,0,0,1-.974-2.434H44.661a24.164,24.164,0,0,0,1.217-7.3,31.411,31.411,0,0,0-.487-4.868H31.275a17.792,17.792,0,0,1,.608-2.434H44.539a14.5,14.5,0,0,0-.974-2.434H32.857a24.134,24.134,0,0,1,1.339-2.434h8.153a11.573,11.573,0,0,0-1.825-2.434h-4.5a20.743,20.743,0,0,1,2.312-2.312A22.456,22.456,0,0,0,22.878,102.4h-.122" transform="translate(0 -1.357)" fill="#e52836"/>
    <path id="Path_2293" data-name="Path 2293" d="M149.843,148.156a23.268,23.268,0,0,0,15.455-5.963h0a21.866,21.866,0,0,0,2.312-2.434h-4.746a28.074,28.074,0,0,1-1.7-2.312h8.153a15.589,15.589,0,0,0,1.339-2.434H159.822a14.505,14.505,0,0,1-.974-2.434H171.5a24.164,24.164,0,0,0,1.217-7.3,31.413,31.413,0,0,0-.487-4.868H158.118a17.8,17.8,0,0,1,.608-2.434h12.656a14.506,14.506,0,0,0-.974-2.434H159.7a24.137,24.137,0,0,1,1.339-2.434h8.153a11.573,11.573,0,0,0-1.825-2.434h-4.5a20.744,20.744,0,0,1,2.312-2.312,22.456,22.456,0,0,0-15.455-5.963H149.6" transform="translate(-126.843 -1.357)" fill="#cb2026"/>
    <g id="Group_17" data-name="Group 17" transform="translate(2.19 117.837)">
      <path id="Path_2294" data-name="Path 2294" d="M185.129,230.709l.365-2.069a5.271,5.271,0,0,1-.608.122c-.852,0-.974-.487-.852-.73l.73-4.259H186.1l.365-2.312h-1.217l.243-1.46H183.06s-1.46,8.032-1.46,9.005a1.827,1.827,0,0,0,1.947,2.069A3.735,3.735,0,0,0,185.129,230.709Z" transform="translate(-156.166 -218.905)" fill="#fff"/>
      <path id="Path_2295" data-name="Path 2295" d="M210.4,234.19c0,3.407,2.312,4.259,4.259,4.259a6.319,6.319,0,0,0,2.556-.365l.487-2.312a7.3,7.3,0,0,1-2.556.608c-2.677,0-2.19-1.947-2.19-1.947h4.989a15.778,15.778,0,0,0,.365-2.19,3.3,3.3,0,0,0-3.529-3.529C212.225,228.471,210.4,231.148,210.4,234.19Zm4.259-3.529c1.339,0,1.1,1.582,1.1,1.7h-2.677C213.077,232.243,213.321,230.661,214.659,230.661Z" transform="translate(-180.585 -226.28)" fill="#fff"/>
      <path id="Path_2296" data-name="Path 2296" d="M302.693,224.6l.487-2.677a5.981,5.981,0,0,1-2.069.608c-1.7,0-2.434-1.339-2.434-2.8,0-2.921,1.46-4.5,3.164-4.5a4.064,4.064,0,0,1,2.19.73l.365-2.556a8.556,8.556,0,0,0-2.8-.608c-2.8,0-5.6,2.434-5.6,7.058,0,3.042,1.46,5.111,4.381,5.111A10.922,10.922,0,0,0,302.693,224.6Z" transform="translate(-253.164 -212.8)" fill="#fff"/>
      <path id="Path_2297" data-name="Path 2297" d="M91.024,227.2a8.618,8.618,0,0,0-2.921.487l-.365,2.069a7.193,7.193,0,0,1,2.677-.487c.852,0,1.582.122,1.582.852,0,.487-.122.608-.122.608h-1.1c-2.069,0-4.381.852-4.381,3.651,0,2.19,1.46,2.677,2.312,2.677a3.656,3.656,0,0,0,2.556-1.1l-.122.974h2.19l.974-6.693C94.31,227.322,91.876,227.2,91.024,227.2Zm.487,5.476c0,.365-.243,2.312-1.7,2.312a.95.95,0,0,1-.974-.974c0-.608.365-1.46,2.19-1.46A1.919,1.919,0,0,0,91.511,232.676Z" transform="translate(-75.448 -225.01)" fill="#fff"/>
      <path id="Path_2298" data-name="Path 2298" d="M138,236.379c.608,0,3.651.122,3.651-3.164,0-3.042-2.921-2.434-2.921-3.651,0-.608.487-.852,1.339-.852.365,0,1.7.122,1.7.122l.365-2.19a9.244,9.244,0,0,0-2.312-.243c-1.825,0-3.651.73-3.651,3.164,0,2.8,3.042,2.556,3.042,3.651,0,.73-.852.852-1.46.852a7.958,7.958,0,0,1-2.19-.365l-.365,2.19C135.322,236.135,135.93,236.379,138,236.379Z" transform="translate(-116.824 -224.331)" fill="#fff"/>
      <path id="Path_2299" data-name="Path 2299" d="M434.136,214.4l-.487,3.286a3.374,3.374,0,0,0-2.312-1.217c-2.19,0-4.138,2.677-4.138,5.841,0,1.947.974,4.016,3.042,4.016a3.249,3.249,0,0,0,2.312-.974l-.122.852h2.434l1.825-11.682Zm-1.1,6.45c0,1.339-.608,3.042-1.947,3.042-.852,0-1.339-.73-1.339-1.947,0-1.947.852-3.164,1.947-3.164C432.554,218.781,433.041,219.389,433.041,220.85Z" transform="translate(-364.407 -214.157)" fill="#fff"/>
      <path id="Path_2300" data-name="Path 2300" d="M16.712,226.082l1.46-8.762.243,8.762h1.7l3.164-8.762-1.339,8.762H24.5L26.448,214.4H22.432L20,221.58l-.122-7.18H16.347L14.4,226.082Z" transform="translate(-14.4 -214.157)" fill="#fff"/>
      <path id="Path_2301" data-name="Path 2301" d="M262.677,238.292c.73-4.016.852-7.3,2.556-6.693a9.553,9.553,0,0,1,.852-2.8H265.6c-1.1,0-1.947,1.46-1.947,1.46l.243-1.339h-2.312L260,238.414h2.677Z" transform="translate(-222.64 -226.366)" fill="#fff"/>
      <path id="Path_2302" data-name="Path 2302" d="M351.024,227.2a8.618,8.618,0,0,0-2.921.487l-.365,2.069a7.194,7.194,0,0,1,2.677-.487c.852,0,1.582.122,1.582.852,0,.487-.122.608-.122.608h-1.1c-2.069,0-4.381.852-4.381,3.651,0,2.19,1.46,2.677,2.312,2.677a3.657,3.657,0,0,0,2.556-1.1l-.122.974h2.19l.974-6.693C354.432,227.322,351.876,227.2,351.024,227.2Zm.608,5.476c0,.365-.243,2.312-1.7,2.312a.95.95,0,0,1-.974-.974c0-.608.365-1.46,2.19-1.46C351.511,232.676,351.511,232.676,351.633,232.676Z" transform="translate(-295.898 -225.01)" fill="#fff"/>
      <path id="Path_2303" data-name="Path 2303" d="M397.077,238.292c.73-4.016.852-7.3,2.556-6.693a9.549,9.549,0,0,1,.852-2.8H400c-1.1,0-1.947,1.46-1.947,1.46l.243-1.339h-2.312l-1.582,9.492h2.677Z" transform="translate(-336.596 -226.366)" fill="#fff"/>
    </g>
    <g id="Group_18" data-name="Group 18" transform="translate(2.19 117.837)">
      <path id="Path_2304" data-name="Path 2304" d="M180,229.005a1.827,1.827,0,0,0,1.947,2.069,4.632,4.632,0,0,0,1.825-.365l.365-2.069a5.27,5.27,0,0,1-.608.122c-.852,0-.974-.487-.852-.73l.73-4.259h1.339l.365-2.312h-1.217l.243-1.46" transform="translate(-154.81 -218.905)" fill="#dce5e5"/>
      <path id="Path_2305" data-name="Path 2305" d="M218.4,234.19c0,3.407,1.1,4.259,3.042,4.259a6.319,6.319,0,0,0,2.556-.365l.487-2.312a7.3,7.3,0,0,1-2.556.608c-2.677,0-2.19-1.947-2.19-1.947h4.989a15.778,15.778,0,0,0,.365-2.19,3.3,3.3,0,0,0-3.529-3.529C219.008,228.471,218.4,231.148,218.4,234.19Zm3.042-3.529c1.339,0,1.582,1.582,1.582,1.7H219.86C219.86,232.243,220.1,230.661,221.442,230.661Z" transform="translate(-187.368 -226.28)" fill="#dce5e5"/>
      <path id="Path_2306" data-name="Path 2306" d="M309.476,224.6l.487-2.677a5.981,5.981,0,0,1-2.069.608c-1.7,0-2.434-1.339-2.434-2.8,0-2.921,1.46-4.5,3.164-4.5a4.064,4.064,0,0,1,2.19.73l.365-2.556a8.556,8.556,0,0,0-2.8-.608c-2.8,0-4.381,2.434-4.381,7.058,0,3.042.243,5.111,3.164,5.111A10.922,10.922,0,0,0,309.476,224.6Z" transform="translate(-259.947 -212.8)" fill="#dce5e5"/>
      <path id="Path_2307" data-name="Path 2307" d="M87.739,231.234a7.193,7.193,0,0,1,2.677-.487c.852,0,1.582.122,1.582.852,0,.487-.122.608-.122.608h-1.1c-2.069,0-4.381.852-4.381,3.651,0,2.19,1.46,2.677,2.312,2.677a3.656,3.656,0,0,0,2.556-1.1l-.122.974h2.19l.974-6.693c0-2.8-2.434-2.921-3.407-2.921m1.825,5.233c0,.365-1.46,2.312-2.921,2.312a.95.95,0,0,1-.974-.974c0-.608.365-1.46,2.19-1.46A9.941,9.941,0,0,0,92.728,234.033Z" transform="translate(-75.448 -226.366)" fill="#dce5e5"/>
      <path id="Path_2308" data-name="Path 2308" d="M136,236.135a10.3,10.3,0,0,0,2.8.243c.608,0,3.651.122,3.651-3.164,0-3.042-2.921-2.434-2.921-3.651,0-.608.487-.852,1.339-.852.365,0,1.7.122,1.7.122l.365-2.19a9.244,9.244,0,0,0-2.312-.243c-1.825,0-2.434.73-2.434,3.164,0,2.8,1.825,2.556,1.825,3.651,0,.73-.852.852-1.46.852" transform="translate(-117.503 -224.331)" fill="#dce5e5"/>
      <path id="Path_2309" data-name="Path 2309" d="M440.384,218.364a3.374,3.374,0,0,0-2.312-1.217c-2.19,0-2.921,2.677-2.921,5.841,0,1.947-.243,4.016,1.825,4.016a3.249,3.249,0,0,0,2.312-.974l-.122.852H441.6l1.825-11.682m-3.164,6.328c0,1.339-1.1,3.042-2.434,3.042-.852,0-1.339-.73-1.339-1.947,0-1.947.852-3.164,1.947-3.164A1.86,1.86,0,0,1,440.262,221.528Z" transform="translate(-371.14 -214.835)" fill="#dce5e5"/>
      <path id="Path_2310" data-name="Path 2310" d="M16.712,226.082l1.46-8.762.243,8.762h1.7l3.164-8.762-1.339,8.762H24.5L26.448,214.4H23.405L20,221.58l-.122-7.18H18.538L14.4,226.082Z" transform="translate(-14.4 -214.157)" fill="#dce5e5"/>
      <path id="Path_2311" data-name="Path 2311" d="M260.8,238.292h2.556c.73-4.016.852-7.3,2.556-6.693a9.552,9.552,0,0,1,.852-2.8h-.487c-1.1,0-1.947,1.46-1.947,1.46l.243-1.339" transform="translate(-223.319 -226.366)" fill="#dce5e5"/>
      <path id="Path_2312" data-name="Path 2312" d="M347.739,231.234a7.193,7.193,0,0,1,2.677-.487c.852,0,1.582.122,1.582.852,0,.487-.122.608-.122.608h-1.1c-2.069,0-4.381.852-4.381,3.651,0,2.19,1.46,2.677,2.312,2.677a3.656,3.656,0,0,0,2.556-1.1l-.122.974h2.19l.974-6.693c0-2.8-2.434-2.921-3.407-2.921m1.825,5.233c0,.365-1.46,2.312-2.921,2.312a.95.95,0,0,1-.974-.974c0-.608.365-1.46,2.19-1.46A10.7,10.7,0,0,0,352.728,234.033Z" transform="translate(-295.898 -226.366)" fill="#dce5e5"/>
      <path id="Path_2313" data-name="Path 2313" d="M395.2,238.292h2.556c.73-4.016.852-7.3,2.556-6.693a9.549,9.549,0,0,1,.852-2.8h-.487c-1.1,0-1.947,1.46-1.947,1.46l.243-1.339" transform="translate(-337.274 -226.366)" fill="#dce5e5"/>
    </g>
  </g>
</svg>
