<svg xmlns="http://www.w3.org/2000/svg" width="163.859" height="147" viewBox="0 0 163.859 147">
  <g id="Group_23" data-name="Group 23" transform="translate(0.143)">
    <circle id="Ellipse_31" data-name="Ellipse 31" cx="73.5" cy="73.5" r="73.5" transform="translate(-0.143 0)" fill="#f4f7fb"/>
    <g id="business-and-finance" transform="translate(35.896 18.047)">
      <path id="Path_542" data-name="Path 542" d="M69.066,73.437,58.83,70.877l-.981-2.944a16.578,16.578,0,0,0,6.416-7.7h1.214a8.226,8.226,0,0,0,6.733-12.98l.021-.043a14.129,14.129,0,0,0-6.319-18.959l-.458-.229A9.249,9.249,0,0,0,56.229,19H42.8A14.448,14.448,0,0,0,28.4,32.551l-.4.4A12.792,12.792,0,0,0,24.9,46.042l.563,1.686a8.2,8.2,0,0,0,7.028,12.5h1.214a16.578,16.578,0,0,0,6.416,7.7l-.981,2.944L28.906,73.437A17.04,17.04,0,0,0,16,89.963v19.748H81.972V89.963A17.039,17.039,0,0,0,69.066,73.437ZM42.673,79.22l-1.262,6.311-4.389-9.873,2.808-.7Zm3.88,1.629h4.868l2.241,11.2-4.676,10.518L44.31,92.054ZM56.56,85.531,55.3,79.22l2.843-4.266,2.808.7Zm8.919-29.421h-.142a16.591,16.591,0,0,0,.142-2.062V47.863a4.123,4.123,0,1,1,0,8.247ZM30.908,35.87l1.585-1.585v-.854A10.32,10.32,0,0,1,42.8,23.123H56.229a5.126,5.126,0,0,1,1.625,9.989l-1.27.423,1.3,3.913,1.272-.425a9.222,9.222,0,0,0,5.41-4.793A9.931,9.931,0,0,1,69.6,40.888a10.038,10.038,0,0,1-.691,3.62,8.214,8.214,0,0,0-3.433-.769H65.1a6.176,6.176,0,0,0-5.806-4.123H38.678a6.176,6.176,0,0,0-5.806,4.123h-.379a8.142,8.142,0,0,0-3.7.917,8.641,8.641,0,0,1,2.115-8.787Zm1.585,20.239a4.123,4.123,0,1,1,0-8.247v6.185a16.59,16.59,0,0,0,.142,2.062Zm4.123-2.062V45.8a2.062,2.062,0,0,1,2.062-2.062H59.294A2.062,2.062,0,0,1,61.356,45.8v8.247a12.37,12.37,0,0,1-24.74,0Zm12.37,16.493A16.454,16.454,0,0,0,54.1,69.72l.86,2.579-2.952,4.426H45.966L43.014,72.3l.86-2.579A16.4,16.4,0,0,0,48.986,70.541ZM20.123,89.963A12.913,12.913,0,0,1,29.9,77.437l3.057-.765,12.852,28.916H32.493V94.573a10.244,10.244,0,0,0-3.02-7.29l-1.707-1.707-2.915,2.915L26.558,90.2a6.144,6.144,0,0,1,1.812,4.375v11.015H20.123Zm57.726,15.625H69.6V94.573A6.149,6.149,0,0,1,71.415,90.2l1.707-1.707-2.915-2.915L68.5,87.283a10.244,10.244,0,0,0-3.02,7.29v11.015H52.159L65.011,76.672l3.057.765a12.918,12.918,0,0,1,9.78,12.526Z" transform="translate(14.924 18.109)" fill="#09f"/>
      <path id="Path_543" data-name="Path 543" d="M63.74,50.479A24.74,24.74,0,1,0,39,25.74,24.767,24.767,0,0,0,63.74,50.479ZM49.751,40.841a14.352,14.352,0,0,1,6.8-9.065l7.189,7.187,7.189-7.189a14.35,14.35,0,0,1,6.8,9.065,20.495,20.495,0,0,1-27.976,0Zm7.8-21.286A6.185,6.185,0,1,1,63.74,25.74,6.192,6.192,0,0,1,57.555,19.555ZM63.74,29.863a14.573,14.573,0,0,1,2.956.313L63.74,33.133l-2.956-2.956A14.573,14.573,0,0,1,63.74,29.863Zm0-24.74A20.6,20.6,0,0,1,80.861,37.206,18.447,18.447,0,0,0,70.708,27.1a10.308,10.308,0,1,0-13.937,0,18.434,18.434,0,0,0-10.154,10.1A20.6,20.6,0,0,1,63.74,5.123Z" transform="translate(39.342 -1)" fill="#09f"/>
      <path id="Path_544" data-name="Path 544" d="M25.74,50.479A24.74,24.74,0,1,0,1,25.74,24.767,24.767,0,0,0,25.74,50.479ZM11.751,40.841A14.338,14.338,0,0,1,17.872,32.2a8.192,8.192,0,0,0,15.734,0,14.352,14.352,0,0,1,6.121,8.638,20.495,20.495,0,0,1-27.976,0Zm7.8-21.286A6.185,6.185,0,1,1,25.74,25.74,6.192,6.192,0,0,1,19.555,19.555ZM29.8,30.448a4.1,4.1,0,0,1-8.127,0,14.393,14.393,0,0,1,8.127,0ZM25.74,5.123A20.6,20.6,0,0,1,42.861,37.206,18.447,18.447,0,0,0,32.708,27.1a10.308,10.308,0,1,0-13.937,0,18.434,18.434,0,0,0-10.154,10.1A20.6,20.6,0,0,1,25.74,5.123Z" transform="translate(-1 -1)" fill="#09f"/>
      <path id="Path_545" data-name="Path 545" d="M50,27h4.123v4.123H50Z" transform="translate(51.02 26.602)" fill="#09f"/>
      <path id="Path_546" data-name="Path 546" d="M55.308,45.431H45v4.123H59.431V31H55.308Z" transform="translate(45.712 30.849)" fill="#09f"/>
      <path id="Path_547" data-name="Path 547" d="M71.8,68.8V42H45v4.123H67.678V68.8Z" transform="translate(45.712 42.527)" fill="#09f"/>
      <path id="Path_548" data-name="Path 548" d="M60.185,57a6.185,6.185,0,1,0,6.185,6.185A6.192,6.192,0,0,0,60.185,57Zm0,8.247a2.062,2.062,0,1,1,2.062-2.062A2.062,2.062,0,0,1,60.185,65.247Z" transform="translate(55.266 58.451)" fill="#09f"/>
      <path id="Path_549" data-name="Path 549" d="M12,27h4.123v4.123H12Z" transform="translate(10.678 26.602)" fill="#09f"/>
      <path id="Path_550" data-name="Path 550" d="M26.431,45.431H16.123V31H12V49.555H26.431Z" transform="translate(10.678 30.849)" fill="#09f"/>
      <path id="Path_551" data-name="Path 551" d="M6,68.8h4.123V46.123H32.8V42H6Z" transform="translate(4.308 42.527)" fill="#09f"/>
      <path id="Path_552" data-name="Path 552" d="M10.185,57a6.185,6.185,0,1,0,6.185,6.185A6.192,6.192,0,0,0,10.185,57Zm0,8.247a2.062,2.062,0,1,1,2.062-2.062A2.062,2.062,0,0,1,10.185,65.247Z" transform="translate(2.185 58.451)" fill="#09f"/>
    </g>
  </g>
</svg>
