<svg xmlns="http://www.w3.org/2000/svg" width="146.353" height="147.02" viewBox="0 0 146.353 147.02">
  <g id="Group_24" data-name="Group 24" transform="translate(0)">
    <circle id="Ellipse_30" data-name="Ellipse 30" cx="72.5" cy="72.5" r="72.5" transform="translate(0 0)" fill="#f4f7fb"/>
    <g id="zoom" transform="translate(33.534 16.9)">
      <path id="Path_532" data-name="Path 532" d="M152.669,8H60.326a2.1,2.1,0,0,0-2.1,2.1V98.357L42.563,114.022a2.1,2.1,0,0,0,0,2.967l11.873,11.873a2.1,2.1,0,0,0,2.967,0l.824-.824v7.983a2.1,2.1,0,0,0,2.1,2.1h71.356a2.1,2.1,0,0,0,1.485-.614l20.987-20.987a2.1,2.1,0,0,0,.614-1.485V10.1a2.1,2.1,0,0,0-2.1-2.1ZM55.921,124.41,47.015,115.5,76.7,85.825l1.48,1.477s0,.005.005.005l5.937,5.937s0,0,.005.005l1.477,1.48ZM88.569,85.825,85.6,88.792l-2.967-2.967,2.967-2.97ZM90.051,48.2a22.931,22.931,0,1,1-6.826,16.324A23.086,23.086,0,0,1,90.051,48.2Zm43.729,82.755V117.133H147.6Zm16.79-18.02H131.682a2.1,2.1,0,0,0-2.1,2.1v18.888H62.425V123.841l27.627-27.63a2.095,2.095,0,0,0,0-2.967l-1.482-1.485,3.807-3.807a27.266,27.266,0,1,0-9.027-8.78l-3.683,3.683-1.485-1.482a2.095,2.095,0,0,0-2.967,0L62.425,94.16V12.2H150.57Z" transform="translate(-41.949 -8)" fill="#09f"/>
      <path id="Path_533" data-name="Path 533" d="M247.719,183.556a18.91,18.91,0,1,0-13.356,5.524,18.91,18.91,0,0,0,13.356-5.524Zm-23.744-23.744a14.644,14.644,0,1,1-4.323,10.389A14.691,14.691,0,0,1,223.974,159.812Z" transform="translate(-169.935 -113.676)" fill="#09f"/>
      <path id="Path_534" data-name="Path 534" d="M215.751,50.494V42.1a2.1,2.1,0,0,0-2.1-2.1H138.1a2.1,2.1,0,0,0-2.1,2.1v8.395a2.1,2.1,0,0,0,2.1,2.1h75.554A2.1,2.1,0,0,0,215.751,50.494Zm-4.2-2.1H140.2V44.2h71.356Z" transform="translate(-111.327 -31.605)" fill="#09f"/>
      <path id="Path_535" data-name="Path 535" d="M171.678,96H138.1a2.1,2.1,0,1,0,0,4.2h33.579a2.1,2.1,0,0,0,0-4.2Z" transform="translate(-111.327 -72.914)" fill="#09f"/>
      <path id="Path_536" data-name="Path 536" d="M146.494,120H138.1a2.1,2.1,0,1,0,0,4.2h8.395a2.1,2.1,0,1,0,0-4.2Z" transform="translate(-111.327 -90.618)" fill="#09f"/>
      <path id="Path_537" data-name="Path 537" d="M196.2,120h-2.1a2.1,2.1,0,1,0,0,4.2h2.1a2.1,2.1,0,0,0,0-4.2Z" transform="translate(-152.636 -90.618)" fill="#09f"/>
      <path id="Path_538" data-name="Path 538" d="M306.1,340.2h29.382a2.1,2.1,0,0,0,0-4.2H306.1a2.1,2.1,0,1,0,0,4.2Z" transform="translate(-235.254 -249.953)" fill="#09f"/>
      <path id="Path_539" data-name="Path 539" d="M376.79,364.2a2.1,2.1,0,1,0,0-4.2H362.1a2.1,2.1,0,0,0,0,4.2Z" transform="translate(-276.563 -267.657)" fill="#09f"/>
      <path id="Path_540" data-name="Path 540" d="M330.1,360a2.1,2.1,0,0,0,0,4.2h2.1a2.1,2.1,0,0,0,0-4.2Z" transform="translate(-252.958 -267.657)" fill="#09f"/>
      <path id="Path_541" data-name="Path 541" d="M228.073,424H186.1a2.1,2.1,0,0,0-2.1,2.1v8.395a2.1,2.1,0,0,0,2.1,2.1h41.974a2.1,2.1,0,0,0,2.1-2.1V426.1A2.1,2.1,0,0,0,228.073,424Zm-2.1,8.395H188.2v-4.2h37.777Z" transform="translate(-146.734 -314.867)" fill="#09f"/>
    </g>
  </g>
</svg>
