<svg xmlns="http://www.w3.org/2000/svg" width="168.038" height="147.151" viewBox="0 0 168.038 147.151">
  <g id="Group_22" data-name="Group 22" transform="translate(0.23)">
    <circle id="Ellipse_33" data-name="Ellipse 33" cx="71.5" cy="71.5" r="71.5" transform="translate(-0.23 0)" fill="#f4f7fb"/>
    <g id="business-and-finance_2_" data-name="business-and-finance (2)" transform="translate(26.903 12.999)">
      <path id="Path_553" data-name="Path 553" d="M355.144,48.341c.061,0,.123.009.185.009a2.286,2.286,0,0,0,.315-.023,5.1,5.1,0,0,1,5,5.094,2.283,2.283,0,0,0,4.566,0,9.68,9.68,0,0,0-7.6-9.44V41.787a2.283,2.283,0,1,0-4.566,0v2.3a9.665,9.665,0,0,0,2.5,19,5.1,5.1,0,1,1-5.1,5.1,2.283,2.283,0,0,0-4.566,0,9.681,9.681,0,0,0,7.169,9.337v2.5a2.283,2.283,0,1,0,4.566,0v-2.4a9.665,9.665,0,0,0-2.069-19.106,5.1,5.1,0,0,1-.4-10.18Zm0,0" transform="translate(-247.177 -28.343)" fill="#09f"/>
      <path id="Path_554" data-name="Path 554" d="M108.5.39A32.755,32.755,0,0,0,77.977,21.825H21.316a2.387,2.387,0,0,0-2.283,2.385l-.54,80.084H2.343A2.245,2.245,0,0,0,0,106.47v10.163a17.933,17.933,0,0,0,17.122,17.86v.05H87.606v-.067c.571.021.806.067,1.167.067h.049a17.931,17.931,0,0,0,17.9-17.931V65.229c.571.031,1.175.048,1.766.048A32.443,32.443,0,0,0,108.5.39ZM17.99,129.976h-.014a13.428,13.428,0,0,1-13.41-13.367V108.86h66.2v7.717a17.909,17.909,0,0,0,5.286,12.69c.24.24.537.425.788.71Zm84.169-13.367a13.366,13.366,0,0,1-13.34,13.367h-.043a13.465,13.465,0,0,1-13.441-13.4V106.47a2.107,2.107,0,0,0-2.179-2.176h-50.1l.524-77.9H76.709a34.3,34.3,0,0,0-.625,6.34A32.192,32.192,0,0,0,78.84,45.8H57.277a2.283,2.283,0,1,0,0,4.566H81.316a32.216,32.216,0,0,0,20.843,14.3Zm6.337-55.9a27.846,27.846,0,1,1,27.846-27.846A27.845,27.845,0,0,1,108.5,60.712Zm0,0" transform="translate(0 -0.39)" fill="#09f"/>
      <path id="Path_555" data-name="Path 555" d="M131.068,212.746a7.079,7.079,0,1,0,7.308,7.075A7.2,7.2,0,0,0,131.068,212.746Zm0,9.584a2.519,2.519,0,1,1,2.742-2.509A2.635,2.635,0,0,1,131.068,222.33Zm0,0" transform="translate(-88.445 -152.148)" fill="#09f"/>
      <path id="Path_556" data-name="Path 556" d="M192.719,231.787A2.282,2.282,0,0,0,195,234.07h30.435a2.283,2.283,0,1,0,0-4.566H195A2.282,2.282,0,0,0,192.719,231.787Zm0,0" transform="translate(-137.724 -164.124)" fill="#09f"/>
      <path id="Path_557" data-name="Path 557" d="M131.068,143.2a7.079,7.079,0,1,0,7.308,7.076A7.2,7.2,0,0,0,131.068,143.2Zm0,9.585a2.52,2.52,0,1,1,2.742-2.509,2.635,2.635,0,0,1-2.742,2.509Zm0,0" transform="translate(-88.445 -102.45)" fill="#09f"/>
      <path id="Path_558" data-name="Path 558" d="M131.068,282.281a7.079,7.079,0,1,0,7.308,7.075A7.2,7.2,0,0,0,131.068,282.281Zm0,9.584a2.519,2.519,0,1,1,2.742-2.509A2.634,2.634,0,0,1,131.068,291.865Zm0,0" transform="translate(-88.445 -201.84)" fill="#09f"/>
      <path id="Path_559" data-name="Path 559" d="M225.437,299.5H195a2.283,2.283,0,1,0,0,4.566h30.435a2.283,2.283,0,1,0,0-4.566Zm0,0" transform="translate(-137.724 -214.149)" fill="#09f"/>
    </g>
  </g>
</svg>
