<svg xmlns="http://www.w3.org/2000/svg" width="109" height="33.046" viewBox="0 0 109 33.046">
  <g id="visa" transform="translate(0 -175.6)">
    <path id="Path_2273" data-name="Path 2273" d="M184.8,211.543l5.537-31.143h8.651l-5.363,31.143Z" transform="translate(-144.833 -3.762)" fill="#3c58bf"/>
    <path id="Path_2274" data-name="Path 2274" d="M184.8,211.543l7.094-31.143h7.094l-5.363,31.143Z" transform="translate(-144.833 -3.762)" fill="#293688"/>
    <path id="Path_2275" data-name="Path 2275" d="M274.471,176.984a21.945,21.945,0,0,0-7.959-1.384c-8.651,0-14.879,4.325-14.879,10.554,0,4.671,4.325,7.094,7.786,8.651s4.5,2.6,4.5,3.979c0,2.076-2.768,3.114-5.19,3.114a18.806,18.806,0,0,1-8.3-1.73l-1.211-.519L248,206.743a28.053,28.053,0,0,0,9.862,1.73c9.17,0,15.225-4.325,15.225-10.9,0-3.633-2.249-6.4-7.44-8.651-3.114-1.557-5.017-2.422-5.017-3.979,0-1.384,1.557-2.768,5.017-2.768a15.869,15.869,0,0,1,6.575,1.211l.865.346,1.384-6.748Z" transform="translate(-194.365)" fill="#3c58bf"/>
    <path id="Path_2276" data-name="Path 2276" d="M274.471,176.984a21.945,21.945,0,0,0-7.959-1.384c-8.651,0-13.322,4.325-13.322,10.554,0,4.671,2.768,7.094,6.229,8.651s4.5,2.6,4.5,3.979c0,2.076-2.768,3.114-5.19,3.114a18.806,18.806,0,0,1-8.3-1.73l-1.211-.519L248,206.743a28.053,28.053,0,0,0,9.862,1.73c9.17,0,15.225-4.325,15.225-10.9,0-3.633-2.249-6.4-7.44-8.651-3.114-1.557-5.017-2.422-5.017-3.979,0-1.384,1.557-2.768,5.017-2.768a15.869,15.869,0,0,1,6.575,1.211l.865.346,1.384-6.748Z" transform="translate(-194.365)" fill="#293688"/>
    <path id="Path_2277" data-name="Path 2277" d="M375.875,180.4c-2.076,0-3.633.173-4.5,2.249L358.4,211.543h9.343l1.73-5.19h11.073l1.038,5.19h8.3L382.622,180.4ZM371.9,201.162c.519-1.557,3.46-9.17,3.46-9.17s.692-1.9,1.211-3.114l.519,2.941s1.73,7.786,2.076,9.516H371.9Z" transform="translate(-280.889 -3.762)" fill="#3c58bf"/>
    <path id="Path_2278" data-name="Path 2278" d="M377.951,180.4c-2.076,0-3.633.173-4.5,2.249L358.4,211.543h9.343l1.73-5.19h11.073l1.038,5.19h8.3L382.622,180.4ZM371.9,201.162c.692-1.73,3.46-9.17,3.46-9.17s.692-1.9,1.211-3.114l.519,2.941s1.73,7.786,2.076,9.516H371.9Z" transform="translate(-280.889 -3.762)" fill="#293688"/>
    <path id="Path_2279" data-name="Path 2279" d="M64.176,202.827l-.865-4.5c-1.557-5.19-6.575-10.9-12.111-13.668l7.786,27.683h9.343L82.343,181.2H73Z" transform="translate(-40.127 -4.389)" fill="#3c58bf"/>
    <path id="Path_2280" data-name="Path 2280" d="M64.176,202.827l-.865-4.5c-1.557-5.19-6.575-10.9-12.111-13.668l7.786,27.683h9.343L82.343,181.2H74.73Z" transform="translate(-40.127 -4.389)" fill="#293688"/>
    <path id="Path_2281" data-name="Path 2281" d="M0,180.4l1.557.346c11.073,2.6,18.686,9.17,21.627,16.956L20.07,183c-.519-2.076-2.076-2.6-3.979-2.6Z" transform="translate(0 -3.762)" fill="#ffbc00"/>
    <path id="Path_2282" data-name="Path 2282" d="M0,180.4H0c11.073,2.6,20.243,9.343,23.184,17.129l-2.941-12.284a4.223,4.223,0,0,0-4.152-3.287Z" transform="translate(0 -3.762)" fill="#f7981d"/>
    <path id="Path_2283" data-name="Path 2283" d="M0,180.4H0c11.073,2.6,20.243,9.343,23.184,17.129l-2.076-6.748c-.519-2.076-1.211-4.152-3.633-5.017Z" transform="translate(0 -3.762)" fill="#ed7c00"/>
    <g id="Group_16" data-name="Group 16" transform="translate(11.246 180.098)">
      <path id="Path_2284" data-name="Path 2284" d="M73.454,213.7l-5.883-5.883L64.8,214.394l-.692-4.325c-1.557-5.19-6.575-10.9-12.111-13.668l7.786,27.683h9.343Z" transform="translate(-52 -196.4)" fill="#051244"/>
      <path id="Path_2285" data-name="Path 2285" d="M193.624,296.813l-7.44-7.613-1.384,7.613Z" transform="translate(-156.079 -269.13)" fill="#051244"/>
      <path id="Path_2286" data-name="Path 2286" d="M263.052,274.8h0c.692.692,1.038,1.211.865,1.9,0,2.076-2.768,3.114-5.19,3.114a18.806,18.806,0,0,1-8.3-1.73l-1.211-.519L248,284.662a28.053,28.053,0,0,0,9.862,1.73c5.536,0,10.035-1.557,12.63-4.325Z" transform="translate(-205.611 -257.844)" fill="#051244"/>
      <path id="Path_2287" data-name="Path 2287" d="M364,242.265h8.132l1.73-5.19h11.073l1.038,5.19h8.3l-2.941-12.63L380.956,219.6l.519,2.768s1.73,7.786,2.076,9.516h-7.267c.692-1.73,3.46-9.17,3.46-9.17s.692-1.9,1.211-3.114" transform="translate(-296.524 -214.583)" fill="#051244"/>
    </g>
  </g>
</svg>
