<svg xmlns="http://www.w3.org/2000/svg" width="109.616" height="109.775" viewBox="0 0 109.616 109.775">
  <g id="interface_1_" data-name="interface (1)" transform="translate(-0.372)">
    <g id="Group_12" data-name="Group 12" transform="translate(0.372 0)">
      <g id="Group_11" data-name="Group 11" transform="translate(0 0)">
        <path id="Path_618" data-name="Path 618" d="M54.843,241.215a1.608,1.608,0,0,0-1.608,1.608v9.833a24.823,24.823,0,0,1-49.646,0v-9.833a1.608,1.608,0,0,0-3.217,0v9.833A28.087,28.087,0,0,0,22.4,280.046L21.394,287.6H14.608A7.92,7.92,0,0,0,6.7,295.51a3.766,3.766,0,0,0,3.762,3.762H46.364a3.766,3.766,0,0,0,3.762-3.762,7.92,7.92,0,0,0-7.911-7.911H35.43l-1.009-7.553a28.087,28.087,0,0,0,22.031-27.389v-9.833A1.608,1.608,0,0,0,54.843,241.215Zm-7.934,54.3a.546.546,0,0,1-.545.545H10.459a.545.545,0,0,1-.545-.545,4.7,4.7,0,0,1,4.694-4.694H42.215A4.7,4.7,0,0,1,46.909,295.51ZM32.184,287.6H24.639l.941-7.045a28.248,28.248,0,0,0,5.663,0Z" transform="translate(-0.372 -189.497)" fill="#28a745"/>
        <path id="Path_619" data-name="Path 619" d="M303.027,54.088H335.2a1.608,1.608,0,0,0,0-3.217H303.027a1.608,1.608,0,0,0,0,3.217Z" transform="translate(-236.873 -39.964)" fill="#28a745"/>
        <path id="Path_620" data-name="Path 620" d="M303.027,110.878H335.2a1.608,1.608,0,0,0,0-3.217H303.027a1.608,1.608,0,0,0,0,3.217Z" transform="translate(-236.873 -84.578)" fill="#28a745"/>
        <path id="Path_621" data-name="Path 621" d="M41.066,131.854a1.609,1.609,0,0,0,.646-2.181,17.112,17.112,0,0,1-2.062-8.146v-2.5H73.832v2.5a17.111,17.111,0,0,1-17.091,17.091,16.921,16.921,0,0,1-10.5-3.6,1.608,1.608,0,1,0-1.978,2.537,20.109,20.109,0,0,0,12.475,4.283A20.331,20.331,0,0,0,77.05,121.527V95.238a20.308,20.308,0,1,0-40.617,0v26.289a20.339,20.339,0,0,0,2.452,9.681,1.608,1.608,0,0,0,2.181.646ZM56.741,78.147A17.12,17.12,0,0,1,73.487,91.811H63.2a1.608,1.608,0,1,0,0,3.217H73.827c0,.07.005.14.005.21v4.054H63.2a1.608,1.608,0,1,0,0,3.217H73.832v4.265H63.2a1.608,1.608,0,1,0,0,3.217H73.832v5.82H39.65v-5.82H50.278a1.608,1.608,0,1,0,0-3.217H39.65v-4.265H50.278a1.608,1.608,0,1,0,0-3.217H39.65V95.238c0-.071,0-.14.005-.21H50.278a1.608,1.608,0,1,0,0-3.217H40A17.121,17.121,0,0,1,56.741,78.147Z" transform="translate(-28.701 -58.865)" fill="#28a745"/>
        <path id="Path_622" data-name="Path 622" d="M290.928,0H259.68a12.767,12.767,0,0,0-12.753,12.753v2.934a1.608,1.608,0,1,0,3.217,0V12.753a9.547,9.547,0,0,1,9.536-9.536h31.248a9.547,9.547,0,0,1,9.536,9.536V26.141a9.547,9.547,0,0,1-9.536,9.536h-17.98a5,5,0,0,0-4.033,2.054l-7.635,10.5V40.264a4.933,4.933,0,0,0-3.793-4.84,9.494,9.494,0,0,1-7.343-9.283V23.207a1.608,1.608,0,1,0-3.217,0v2.934a12.7,12.7,0,0,0,9.823,12.414,1.75,1.75,0,0,1,1.312,1.708v9.791a2.625,2.625,0,0,0,4.745,1.543l8.709-11.975a1.775,1.775,0,0,1,1.431-.729h17.98a12.767,12.767,0,0,0,12.753-12.753V12.753A12.768,12.768,0,0,0,290.928,0Z" transform="translate(-194.064 0)" fill="#28a745"/>
      </g>
    </g>
  </g>
</svg>
