<svg xmlns="http://www.w3.org/2000/svg" width="105.956" height="107.722" viewBox="0 0 105.956 107.722">
  <g id="bullhorn" transform="translate(-2 -1)">
    <path id="Path_603" data-name="Path 603" d="M63.808,70.851H60.276V53.544a1.766,1.766,0,1,0-3.532,0V70.851H10.83V35.532H25.522a1.766,1.766,0,1,0,0-3.532H9.064A1.766,1.766,0,0,0,7.3,33.766V70.851H3.766A1.766,1.766,0,0,0,2,72.617v3.532a8.83,8.83,0,0,0,8.83,8.83H56.744a8.83,8.83,0,0,0,8.83-8.83V72.617A1.766,1.766,0,0,0,63.808,70.851Zm-1.766,5.3a5.3,5.3,0,0,1-5.3,5.3H53.212V79.68a1.766,1.766,0,1,0-3.532,0v1.766H17.893V79.68a1.766,1.766,0,1,0-3.532,0v1.766H10.83a5.3,5.3,0,0,1-5.3-5.3V74.383h56.51Z" transform="translate(0 23.744)" fill="#28a745"/>
    <path id="Path_604" data-name="Path 604" d="M57.83,9.532h3.532a1.766,1.766,0,1,0,0-3.532H57.83a5.3,5.3,0,0,0-5.3,5.3v1.766H50.766a1.766,1.766,0,0,0,0,3.532h1.766v5.3a1.766,1.766,0,1,0,3.532,0V16.6H57.83a1.766,1.766,0,1,0,0-3.532H56.064V11.3A1.766,1.766,0,0,1,57.83,9.532Z" transform="translate(35.999 3.83)" fill="#28a745"/>
    <path id="Path_605" data-name="Path 605" d="M70.489,2H49.3A5.3,5.3,0,0,0,44,7.3V10.83a1.766,1.766,0,1,0,3.532,0V7.3A1.766,1.766,0,0,1,49.3,5.532H70.489A1.766,1.766,0,0,1,72.255,7.3V28.489a1.766,1.766,0,0,1-1.766,1.766H49.3a1.766,1.766,0,0,1-1.766-1.766v-10.6a1.766,1.766,0,0,0-3.532,0v10.6a5.3,5.3,0,0,0,5.3,5.3H70.489a5.3,5.3,0,0,0,5.3-5.3V7.3A5.3,5.3,0,0,0,70.489,2Z" transform="translate(32.169 0.766)" fill="#28a745"/>
    <path id="Path_606" data-name="Path 606" d="M49,45.064A7.064,7.064,0,1,0,56.064,38,7.064,7.064,0,0,0,49,45.064Zm10.6,0a3.532,3.532,0,1,1-3.532-3.532A3.532,3.532,0,0,1,59.6,45.064Z" transform="translate(35.999 28.34)" fill="#28a745"/>
    <path id="Path_607" data-name="Path 607" d="M70.489,33H49.3A5.3,5.3,0,0,0,44,38.3V59.489a5.3,5.3,0,0,0,5.3,5.3H70.489a5.3,5.3,0,0,0,5.3-5.3V55.957a1.766,1.766,0,1,0-3.532,0v3.532a1.766,1.766,0,0,1-1.766,1.766H49.3a1.766,1.766,0,0,1-1.766-1.766V38.3A1.766,1.766,0,0,1,49.3,36.532H70.489A1.766,1.766,0,0,1,72.255,38.3v10.6a1.766,1.766,0,0,0,3.532,0V38.3A5.3,5.3,0,0,0,70.489,33Z" transform="translate(32.169 24.51)" fill="#28a745"/>
    <path id="Path_608" data-name="Path 608" d="M24.83,19.86a1.757,1.757,0,0,0,1.731.071l10.6-5.3a1.766,1.766,0,0,0,0-3.143l-10.6-5.3A1.766,1.766,0,0,0,24,7.764v10.6A1.766,1.766,0,0,0,24.83,19.86Zm2.7-9.236,4.874,2.437L27.532,15.5Z" transform="translate(16.851 3.832)" fill="#28a745"/>
    <path id="Path_609" data-name="Path 609" d="M33.893,32.787A15.893,15.893,0,1,0,18,16.893,15.893,15.893,0,0,0,33.893,32.787Zm0-28.255A12.362,12.362,0,1,1,21.532,16.893,12.362,12.362,0,0,1,33.893,4.532Z" transform="translate(12.255 0)" fill="#28a745"/>
    <path id="Path_610" data-name="Path 610" d="M37.766,27.6a1.766,1.766,0,0,0,1.413-.706l5.3-7.064a1.766,1.766,0,1,0-2.826-2.119l-5.3,7.064A1.766,1.766,0,0,0,37.766,27.6Z" transform="translate(26.042 12.255)" fill="#28a745"/>
    <path id="Path_611" data-name="Path 611" d="M39.353,30.123a1.766,1.766,0,0,0,2.472.353l7.064-5.3a1.766,1.766,0,1,0-2.119-2.825l-7.064,5.3a1.766,1.766,0,0,0-.353,2.472Z" transform="translate(28.34 16.085)" fill="#28a745"/>
    <path id="Path_612" data-name="Path 612" d="M54.442,29.431a1.766,1.766,0,0,0-2.119-1.413l-8.83,1.766a1.775,1.775,0,1,0,.353,3.532H44.2l8.83-1.766a1.766,1.766,0,0,0,1.413-2.119Z" transform="translate(30.557 20.662)" fill="#28a745"/>
    <path id="Path_613" data-name="Path 613" d="M3.766,42.787H24.957a1.766,1.766,0,0,0,1.766-1.766V12.766A1.766,1.766,0,0,0,24.957,11H3.766A1.766,1.766,0,0,0,2,12.766V41.021A1.766,1.766,0,0,0,3.766,42.787ZM5.532,14.532H23.191V39.255H5.532Z" transform="translate(0 7.659)" fill="#28a745"/>
    <path id="Path_614" data-name="Path 614" d="M13.3,15H9.766a1.766,1.766,0,0,0,0,3.532H13.3A1.766,1.766,0,1,0,13.3,15Z" transform="translate(4.596 10.723)" fill="#28a745"/>
    <path id="Path_615" data-name="Path 615" d="M14.83,19H7.766a1.766,1.766,0,0,0,0,3.532H14.83a1.766,1.766,0,0,0,0-3.532Z" transform="translate(3.064 13.787)" fill="#28a745"/>
    <path id="Path_616" data-name="Path 616" d="M14.83,23H7.766a1.766,1.766,0,1,0,0,3.532H14.83a1.766,1.766,0,0,0,0-3.532Z" transform="translate(3.064 16.851)" fill="#28a745"/>
    <path id="Path_617" data-name="Path 617" d="M56.866,33.064a1.772,1.772,0,1,0-3.073,1.766L61.581,48.3,33.326,58.9h-.265L28.47,61.548l-3.055,1.766a3.526,3.526,0,0,1-4.821-1.289l-3.532-6.11a3.532,3.532,0,0,1,1.324-4.662l6.11-3.532,4.415,7.647A1.772,1.772,0,1,0,31.984,53.6l-4.556-7.876L49.591,27.448l.724,1.254a1.772,1.772,0,0,0,3.073-1.766l-1.766-3.055a1.79,1.79,0,0,0-2.667-.477L24.232,43.783l-7.523,4.344a7.064,7.064,0,0,0-3.249,8l-1.766,1.007a5.294,5.294,0,0,0,2.649,9.889,5.4,5.4,0,0,0,2.649-.706l1.766-1.007a6.852,6.852,0,0,0,3.09,1.837,6.693,6.693,0,0,0,1.854.247,6.958,6.958,0,0,0,3.532-.954l1.536-.883L32.3,71.685a5.293,5.293,0,1,0,9.165-5.3l-3.214-5.6,26.489-9.942a1.771,1.771,0,0,0,.918-2.525ZM15.155,63.244a1.764,1.764,0,1,1-1.766-3.055l1.536-.883,1.766,3.055Zm23.24,4.945a1.764,1.764,0,0,1-3.055,1.766l-3.532-6.128,2.931-1.678h.141Z" transform="translate(5.388 16.853)" fill="#28a745"/>
  </g>
</svg>
