<svg xmlns="http://www.w3.org/2000/svg" width="105.956" height="105.933" viewBox="0 0 105.956 105.933">
  <g id="interface" transform="translate(-0.001 -0.074)">
    <path id="Path_566" data-name="Path 566" d="M73.553,106.008a5.322,5.322,0,0,0,5.12-3.919l4.882-18.227,18.489-4.943a5.306,5.306,0,0,0,3.734-6.485L96.191,36.706l.759-2.824A5.3,5.3,0,0,0,93.757,27.6L89.44,11.485a5.334,5.334,0,0,0-6.488-3.75L51.422,16.194,24.983,9.105a5.193,5.193,0,0,0-3.279.177L15.1,2.689A8.827,8.827,0,1,0,2.613,15.17L14.652,27.209.228,81.054a5.309,5.309,0,0,0,3.735,6.493l68.215,18.277a5.193,5.193,0,0,0,1.375.183Zm28.809-32.66a1.766,1.766,0,0,1-1.236,2.158L84.612,79.918l9.747-36.387ZM83.856,11.15a1.766,1.766,0,0,1,2.173,1.255l3.766,14.067L58.242,18.019ZM53.491,53.573,44.578,50.6l5.942-5.948,2.971,8.912Zm-7.185-9.688L31.326,28.9a1.765,1.765,0,1,0-2.5,2.5L43.811,46.379l-2.5,2.5L16.347,23.909l2.5-2.5,4.992,4.994a1.767,1.767,0,0,0,2.5-2.5l-4.993-4.993,2.5-2.5L48.8,41.387ZM11.352,18.916l7.491-7.491,2.5,2.5L13.85,21.413ZM3.559,8.929A5.3,5.3,0,0,1,12.6,5.184l3.745,3.745L8.856,16.42,5.11,12.673a5.261,5.261,0,0,1-1.55-3.744Zm.082,73.052,13.9-51.886L40.065,52.622a1.737,1.737,0,0,0,.65.4c.014,0,.024.019.04.024l11.629,3.884a3.549,3.549,0,0,0,1.126.177,3.5,3.5,0,0,0,1.875-.553l20.3,5.452a1.694,1.694,0,0,0,.459.061A1.765,1.765,0,0,0,76.6,58.6l-19.6-5.261a3.654,3.654,0,0,0-.162-.883L52.96,40.824c0-.016-.019-.027-.027-.043a1.751,1.751,0,0,0-.4-.646l-27.286-27.3L92.283,30.794a1.767,1.767,0,0,1,1.25,2.165L75.264,101.165a1.765,1.765,0,0,1-2.166,1.25L4.89,84.145a1.764,1.764,0,0,1-1.249-2.164Zm0,0" transform="translate(0 0)" fill="#28a745"/>
    <path id="Path_567" data-name="Path 567" d="M291.367,161.405a1.766,1.766,0,0,0,.456-3.471l-25.11-6.728a1.765,1.765,0,1,0-.915,3.409l25.112,6.729a1.751,1.751,0,0,0,.457.061Zm0,0" transform="translate(-209.733 -119.807)" fill="#28a745"/>
    <path id="Path_568" data-name="Path 568" d="M308.993,219.161a1.766,1.766,0,0,0,.456-3.471l-17.072-4.567a1.765,1.765,0,1,0-.911,3.41l17.072,4.568A1.763,1.763,0,0,0,308.993,219.161Zm0,0" transform="translate(-230.104 -167.332)" fill="#28a745"/>
    <path id="Path_569" data-name="Path 569" d="M89.711,262.795l-5.12-1.371a1.765,1.765,0,1,0-.916,3.409l5.12,1.374a1.8,1.8,0,0,0,.459.06,1.766,1.766,0,0,0,.457-3.471Zm0,0" transform="translate(-65.297 -207.223)" fill="#28a745"/>
    <path id="Path_570" data-name="Path 570" d="M199.852,294.121a1.765,1.765,0,0,0-1.248-2.161l-39.223-10.508a1.765,1.765,0,0,0-.912,3.4l39.22,10.508a1.718,1.718,0,0,0,.457.061,1.765,1.765,0,0,0,1.705-1.3Zm0,0" transform="translate(-124.739 -223.139)" fill="#28a745"/>
    <path id="Path_571" data-name="Path 571" d="M76.627,312.293l-5.12-1.372a1.766,1.766,0,0,0-.912,3.411l5.12,1.37a1.677,1.677,0,0,0,.457.061,1.765,1.765,0,0,0,.457-3.47Zm0,0" transform="translate(-54.957 -246.491)" fill="#28a745"/>
    <path id="Path_572" data-name="Path 572" d="M184.726,341.257l-39.22-10.51a1.766,1.766,0,1,0-.915,3.41l39.221,10.509a1.727,1.727,0,0,0,.459.062,1.765,1.765,0,0,0,.455-3.471Zm0,0" transform="translate(-113.602 -262.204)" fill="#28a745"/>
  </g>
</svg>
