<svg id="man" xmlns="http://www.w3.org/2000/svg" width="105.933" height="105.933" viewBox="0 0 105.933 105.933">
  <path id="Path_640" data-name="Path 640" d="M104.278,0H38.07a1.654,1.654,0,0,0-1.655,1.655V33.1l-9.931,0V31.3A13.234,13.234,0,0,0,33.1,19.866v-5.8a14,14,0,0,0-3.673-9.445,1.608,1.608,0,0,0-.124-.136,14.049,14.049,0,0,0-24.341,9.58v.821a1.916,1.916,0,0,0,.04.2,1.562,1.562,0,0,0,.065.319,1.672,1.672,0,0,0,.132.286,1.382,1.382,0,0,0,.407.473,1.444,1.444,0,0,0,.253.17,1.634,1.634,0,0,0,.314.118,1.74,1.74,0,0,0,.184.068c.091.015.169.018.26.031v3.312A13.234,13.234,0,0,0,13.242,31.3v1.807H8.293c-.007,0-.01,0-.017,0A8.285,8.285,0,0,0,0,41.38v9.931a1.655,1.655,0,0,0,3.31,0V41.38a4.969,4.969,0,0,1,4.954-4.964l.012,0h5.947l1.159,1.159c.017.018.04.023.058.038a1.633,1.633,0,0,0,.417.276,1.318,1.318,0,0,0,.142.061,1.672,1.672,0,0,0,.55.108h0l.008,0a1.629,1.629,0,0,0,.672-.161c.02-.008.038,0,.058-.013L19.863,36.6l2.571,1.284c.02.01.038,0,.058.013a1.635,1.635,0,0,0,.672.161l.008,0h0a1.672,1.672,0,0,0,.55-.108,1.318,1.318,0,0,0,.142-.061,1.633,1.633,0,0,0,.419-.278c.017-.015.04-.022.056-.036l1.17-1.17,12.551.007s0,0,0,0l0,0,1.649,0h0a6.627,6.627,0,0,0,6.621-6.621,1.655,1.655,0,0,1,3.31,0,9.941,9.941,0,0,1-9.931,9.931H31.449a1.654,1.654,0,0,0-1.655,1.655v9.931a1.655,1.655,0,1,0,3.31,0V43.035h3.31v8.276a1.654,1.654,0,0,0,1.655,1.655h66.208a1.654,1.654,0,0,0,1.655-1.655V1.655A1.654,1.654,0,0,0,104.278,0ZM28.418,8.819A10.71,10.71,0,0,1,29.59,12a6.8,6.8,0,0,0-2.172-1.149ZM19.033,3.31a10.706,10.706,0,0,1,7.086,2.681l-2.453,5c-.655.192-1.334.449-2.056.733a24.311,24.311,0,0,1-13.3,1.707A10.76,10.76,0,0,1,19.033,3.31Zm-9.1,16.544v-2.94a26.886,26.886,0,0,0,12.9-2.115c3.122-1.236,4.05-1.591,6.965,2.11v2.945a9.931,9.931,0,0,1-19.863,0Zm9.931,13.237a13.174,13.174,0,0,0,3.31-.437v1.412l-.326.326L20.6,33.27c-.036-.018-.076-.015-.113-.031a1.788,1.788,0,0,0-.323-.088,1.614,1.614,0,0,0-.3-.038,1.741,1.741,0,0,0-.3.038,1.661,1.661,0,0,0-.323.088c-.036.017-.076.013-.113.031l-2.243,1.122-.329-.326V32.654a13.1,13.1,0,0,0,3.31.437Zm82.76,16.565h-62.9V43.035A13.257,13.257,0,0,0,52.967,29.794a4.966,4.966,0,0,0-9.931,0,3.314,3.314,0,0,1-3.31,3.31V3.31h62.9Z" fill="#28a745"/>
  <path id="Path_641" data-name="Path 641" d="M7.31,34.931V26.655a1.655,1.655,0,0,0-3.31,0v8.276a1.655,1.655,0,0,0,3.31,0Z" transform="translate(2.621 16.38)" fill="#28a745"/>
  <path id="Path_642" data-name="Path 642" d="M70.483,69.753c-.018,0-.031.01-.048.01H67.173V66.3a13.232,13.232,0,0,0,6.614-11.318c0-.01,0-.02,0-.031,0-.03,0-.056,0-.086V46.6c0-.007,0-.012,0-.017A6.616,6.616,0,0,0,68.828,40.2V36.655A1.654,1.654,0,0,0,67.173,35H58.9A11.6,11.6,0,0,0,47.31,46.578v8.288c0,.03,0,.056,0,.086,0,.012,0,.022,0,.031A13.232,13.232,0,0,0,53.931,66.3v3.463H50.669c-.018,0-.031-.01-.048-.01A6.627,6.627,0,0,0,44,76.374v4.972A1.654,1.654,0,0,0,45.655,83H75.449A1.654,1.654,0,0,0,77.1,81.346V76.372a6.627,6.627,0,0,0-6.621-6.619ZM58.9,38.31h6.621v3.31a1.654,1.654,0,0,0,1.655,1.655,3.315,3.315,0,0,1,3.312,3.3s0,0,0,.008v7.844a11.829,11.829,0,0,1-19.863,0V46.586A8.285,8.285,0,0,1,58.9,38.31ZM52.819,61.068a15.476,15.476,0,0,0,15.466,0,9.91,9.91,0,0,1-15.466,0Zm7.733,7.023a13.174,13.174,0,0,0,3.31-.437v2.1H57.242v-2.1A13.1,13.1,0,0,0,60.552,68.091Zm-9.964,4.976c.012,0,.022.007.033.007h4.966c.02,0,.035-.012.056-.012h9.819c.022,0,.036.012.056.012h4.966c.012,0,.022-.007.033-.007a3.31,3.31,0,0,1,3.277,3.305v3.319H47.31V76.372A3.311,3.311,0,0,1,50.588,73.066Z" transform="translate(28.829 22.932)" fill="#28a745"/>
  <path id="Path_643" data-name="Path 643" d="M1.655,83H31.449A1.654,1.654,0,0,0,33.1,81.346V76.372a6.627,6.627,0,0,0-6.621-6.619c-.018,0-.031.01-.048.01H23.173V66.3a13.232,13.232,0,0,0,6.614-11.318c0-.01,0-.02,0-.031,0-.03,0-.056,0-.086V48.233a13.242,13.242,0,0,0-26.483,0v6.631c0,.03,0,.056,0,.086,0,.012,0,.022,0,.031A13.232,13.232,0,0,0,9.931,66.3v3.463H6.669c-.018,0-.031-.01-.048-.01A6.627,6.627,0,0,0,0,76.372v4.974A1.654,1.654,0,0,0,1.655,83Zm14.9-44.691a9.938,9.938,0,0,1,9.931,9.925v6.189a11.518,11.518,0,0,1-9.931,5.4,11.464,11.464,0,0,1-9.931-5.4V48.235a9.938,9.938,0,0,1,9.931-9.925ZM8.819,61.068a14.806,14.806,0,0,0,7.733,2.071,14.806,14.806,0,0,0,7.733-2.071,9.91,9.91,0,0,1-15.466,0Zm7.733,7.023a13.174,13.174,0,0,0,3.31-.437v2.1H13.242v-2.1A13.1,13.1,0,0,0,16.552,68.091ZM6.588,73.066c.012,0,.022.007.033.007h4.966c.02,0,.035-.012.056-.012h9.819c.022,0,.036.012.056.012h4.966c.012,0,.022-.007.033-.007a3.31,3.31,0,0,1,3.277,3.305v3.319H3.31V76.372A3.311,3.311,0,0,1,6.588,73.066Z" transform="translate(0 22.932)" fill="#28a745"/>
  <path id="Path_644" data-name="Path 644" d="M31.931,70.39H28.669c-.018,0-.031-.01-.048-.01A6.627,6.627,0,0,0,22,77v4.974a1.654,1.654,0,0,0,1.655,1.655H53.449A1.654,1.654,0,0,0,55.1,81.974V77a6.627,6.627,0,0,0-6.621-6.619c-.018,0-.031.01-.048.01H45.173V69.258a1.594,1.594,0,0,0-.106-.526h8.382A1.654,1.654,0,0,0,55.1,67.077V50.594a16.552,16.552,0,0,0-33.1,0V67.077a1.654,1.654,0,0,0,1.655,1.655h8.382a1.6,1.6,0,0,0-.106.526ZM51.794,77v3.319H25.31V77a3.311,3.311,0,0,1,3.277-3.305c.012,0,.022.007.033.007h4.732l4.674,1.558s.007,0,.008,0a1.622,1.622,0,0,0,1.033,0l.008,0L43.751,73.7h4.732c.012,0,.022-.007.033-.007A3.311,3.311,0,0,1,51.794,77ZM38.552,37.352A13.257,13.257,0,0,1,51.794,50.594V65.421H25.31V50.594A13.257,13.257,0,0,1,38.552,37.352Zm3.416,31.379a1.6,1.6,0,0,0-.106.526v1.582l-3.31,1.1-3.31-1.1V69.258a1.594,1.594,0,0,0-.106-.526Z" transform="translate(14.415 22.305)" fill="#28a745"/>
  <path id="Path_645" data-name="Path 645" d="M38.964,33.792a4.966,4.966,0,0,0,0,9.931h9.928a4.955,4.955,0,0,0,4.659-3.309H67.105a1.654,1.654,0,0,0,1.655-1.655V28.83h6.621a1.654,1.654,0,0,0,1.655-1.655V20.552A1.654,1.654,0,0,0,75.382,18.9H58.829a1.654,1.654,0,0,0-1.655,1.655v1.657H52.66l-7.078-4.247v-4.03h3.309a4.966,4.966,0,1,0,0-9.931H38.964a4.966,4.966,0,1,0,0,9.931h3.309v4.03L34.8,22.446a1.655,1.655,0,0,0,0,2.837l7.472,4.484v4.025Zm0-26.482h9.928a1.655,1.655,0,0,1,0,3.31H38.964a1.655,1.655,0,0,1,0-3.31Zm0,29.792h9.928a1.655,1.655,0,0,1,0,3.31H38.964a1.655,1.655,0,1,1,0-3.31Zm21.521-14.9H73.726v3.312H60.485ZM43.928,20.829l5.058,3.036L43.928,26.9l-5.058-3.036Zm1.655,8.938,7.078-4.247h4.514v1.655a1.654,1.654,0,0,0,1.655,1.655H65.45V37.1h-11.9a4.958,4.958,0,0,0-4.661-3.312H45.583Z" transform="translate(22.276 2.621)" fill="#28a745"/>
</svg>
