<svg xmlns="http://www.w3.org/2000/svg" width="96.608" height="109.775" viewBox="0 0 96.608 109.775">
  <g id="music-and-multimedia" transform="translate(0 0)">
    <path id="Path_623" data-name="Path 623" d="M94.464,44.312H21.316l70.26-20.353A2.145,2.145,0,0,0,93.039,21.3L89.362,8.611A12,12,0,0,0,77.883,0a11.879,11.879,0,0,0-3.3.47L8.614,19.58A11.96,11.96,0,0,0,.473,34.36l3.592,12.4V97.843A11.945,11.945,0,0,0,16,109.775H41.76a2.144,2.144,0,0,0,0-4.288H16a7.652,7.652,0,0,1-7.644-7.644V68.666H92.32V97.843a7.652,7.652,0,0,1-7.644,7.644H58.912a2.144,2.144,0,1,0,0,4.288H84.676A11.945,11.945,0,0,0,96.608,97.843V46.456a2.144,2.144,0,0,0-2.144-2.144ZM56.658,64.378,65.768,48.6H77.616L68.507,64.378Zm-16.8,0L48.967,48.6H60.815L51.707,64.378Zm-16.8,0L32.166,48.6H44.016l-9.11,15.777Zm7.971-27.756L15.775,21.97,27.2,18.659a2.127,2.127,0,0,0,.281.331L42.74,33.642,31.31,36.952a2.134,2.134,0,0,0-.281-.331ZM59.759,9.641,75.014,24.292,63.584,27.6a2.088,2.088,0,0,0-.281-.331L48.048,12.621,59.478,9.31A2.127,2.127,0,0,0,59.759,9.641ZM43.622,14.316,58.876,28.966l-11.43,3.312a2.088,2.088,0,0,0-.281-.331L31.911,17.3l11.43-3.311A2.264,2.264,0,0,0,43.622,14.316ZM75.774,4.589a7.581,7.581,0,0,1,2.109-.3A7.693,7.693,0,0,1,85.243,9.8l3.08,10.632-8.6,2.492a2.178,2.178,0,0,0-.282-.331L64.186,7.947ZM5.249,27.358A7.587,7.587,0,0,1,9.807,23.7l1.26-.365a2.181,2.181,0,0,0,.281.331L26.6,38.316,7.672,43.8,4.592,33.167a7.59,7.59,0,0,1,.657-5.809ZM8.353,48.6H27.215L18.106,64.377H8.353ZM73.458,64.377,82.567,48.6H92.32V64.377Zm0,0" transform="translate(0)" fill="#28a745" fill-rule="evenodd"/>
    <path id="Path_624" data-name="Path 624" d="M219.191,357.41a2.143,2.143,0,0,0-1.072-1.857l-18.837-10.875a2.144,2.144,0,0,0-3.216,1.857v21.75a2.143,2.143,0,0,0,3.216,1.856l18.837-10.874a2.143,2.143,0,0,0,1.072-1.857Zm-18.837,7.162V350.249l12.4,7.162Zm0,0" transform="translate(-154.029 -270.552)" fill="#28a745" fill-rule="evenodd"/>
    <path id="Path_625" data-name="Path 625" d="M226.917,492a2.144,2.144,0,1,0,2.144,2.144A2.148,2.148,0,0,0,226.917,492Zm0,0" transform="translate(-176.581 -386.513)" fill="#28a745" fill-rule="evenodd"/>
  </g>
</svg>
